<?xml version="1.0" encoding="utf-8"?>
<svg version="1.1" xmlns="http://www.w3.org/2000/svg" xmlns:xlink="http://www.w3.org/1999/xlink"
     viewBox="24 91 122 310" xml:space="preserve">
		<g>
			<g>
				<path style="fill:#FFFFFF;" d="M94.169,283.903c0,0-1.037,12.989-10.717,16.048s-14.378,3.198-11.531,13.905
					c1.932,7.265,3.733,16.194,4.691,21.185c0.479,2.495,0.255,5.067-0.647,7.448c-0.033,0.086-0.065,0.171-0.097,0.257
					c-2.166,5.714-4.332,11.429-6.498,17.143c-4.162,10.982-8.325,21.963-12.487,32.944c-4.192,11.06-8.384,22.12-12.576,33.18
					c-1.493,3.938-2.985,7.876-4.478,11.814c-1.527,4.028-4.852,9.508-0.717,12.975c5.417,4.54,9.668-2.23,12.572-5.855
					c3.489-4.355,6.977-8.71,10.466-13.065c7.073-8.829,14.146-17.659,21.219-26.488l2.124-2.652
					c0.464-0.579,0.954-1.142,1.501-1.651c6.226-5.798,16.207-5.679,22.275,0.509l39.314,40.086c2.814,2.902,7.9,2.164,9.778-1.332
					c1.318-2.454,0.1-5.165-0.629-7.643c-0.883-3.005-1.928-5.965-2.855-8.958c-3.307-10.672-6.615-21.345-9.922-32.017
					c-3.359-10.838-6.717-21.676-10.076-32.514c-1.537-4.96-3.074-9.919-4.611-14.879c-0.73-2.74-0.593-5.632,0.392-8.294
					l21.791-58.888c1.605-4.338-3.906-7.806-7.286-4.584l-23.626,22.52c-4.454,4.246-12.772,1.964-13.516-4.072
					c-0.019-0.156-0.035-0.315-0.048-0.477L94.169,283.903z"/>
			</g>
			<g>
				<path style="fill:#141414;" d="M125.532,345.985c0.979-1.206,0.138-3.381,0.104-4.745c-0.055-2.259,0.328-4.521,1.115-6.645
					c3.027-8.181,6.054-16.361,9.081-24.542c2.322-6.276,4.645-12.552,6.967-18.828c0.962-2.599,1.923-5.198,2.885-7.797
					c0.408-1.103,3.061-6.891-0.195-5.378c-0.518,0.241-1.046,0.977-1.459,1.371c-1.048,0.999-2.097,1.998-3.145,2.998
					c-2.452,2.338-4.905,4.675-7.357,7.013c-3.037,2.895-6.073,5.789-9.11,8.684c-2.253,2.148-5.275,3.33-8.51,3.33
					c-5.561,0-10.173-3.29-11.629-8.048l-5.123-2.465v55.948c3.748,0,7.496,0,11.244,0c2.972,0,5.944,0,8.916,0
					C121.065,346.88,124.256,347.557,125.532,345.985z"/>
			</g>
			<g>
				<g>
					<g>
						
							<rect x="80.633" y="120.546" transform="matrix(0.9998 0.0194 -0.0194 0.9998 2.3745 -1.6172)" style="fill:#FFFFFF;" width="8.107" height="2.495"/>
					</g>
					<g>
						<path style="fill:#FFFFFF;" d="M80.75,122.962c-0.017-0.79-0.022-1.579,0-2.368c0.028-0.982-0.147-2.263-1.243-2.317
							c-1.788-0.089-3.511,2.047-3.482,3.35c0.029,1.302,1.882,3.67,3.563,3.649C80.598,125.261,80.772,123.983,80.75,122.962z"/>
					</g>
				</g>
				<g>
					<g>
						
							<rect x="110.95" y="121.459" transform="matrix(-0.9998 -0.0194 0.0194 -0.9998 227.6116 247.6144)" style="fill:#FFFFFF;" width="8.107" height="2.494"/>
					</g>
					<g>
						<path style="fill:#FFFFFF;" d="M118.892,124.026c0.048-0.789,0.083-1.577,0.091-2.367c0.01-0.983,0.235-2.255,1.332-2.267
							c1.79-0.02,3.429,2.182,3.35,3.482c-0.079,1.3-2.022,3.595-3.702,3.508C118.955,126.329,118.831,125.045,118.892,124.026z"/>
					</g>
				</g>
			</g>
			<g>
				<g>
					<g>
						
							<rect x="83.011" y="130.942" transform="matrix(0.9998 0.0194 -0.0194 0.9998 2.5763 -1.6613)" style="fill:#FFFFFF;" width="8.107" height="2.494"/>
					</g>
					<g>
						<path style="fill:#FFFFFF;" d="M83.129,133.358c-0.017-0.79-0.022-1.579,0-2.368c0.028-0.982-0.147-2.263-1.243-2.317
							c-1.788-0.089-3.511,2.047-3.482,3.35c0.029,1.302,1.882,3.67,3.563,3.649C82.976,135.658,83.15,134.379,83.129,133.358z"/>
					</g>
				</g>
				<g>
					<g>
						
							<rect x="108.572" y="131.763" transform="matrix(-0.9998 -0.0194 0.0194 -0.9998 222.6545 268.1759)" style="fill:#FFFFFF;" width="8.107" height="2.495"/>
					</g>
					<g>
						<path style="fill:#FFFFFF;" d="M116.514,134.33c0.047-0.789,0.083-1.577,0.091-2.367c0.01-0.983,0.235-2.255,1.332-2.267
							c1.79-0.02,3.429,2.182,3.35,3.482c-0.079,1.3-2.022,3.595-3.702,3.508C116.577,136.633,116.452,135.349,116.514,134.33z"/>
					</g>
				</g>
			</g>
			<g>
				<g>
					<g>
						
							<rect x="85.316" y="141.337" transform="matrix(0.9998 0.0194 -0.0194 0.9998 2.778 -1.704)" style="fill:#FFFFFF;" width="8.107" height="2.495"/>
					</g>
					<g>
						<path style="fill:#FFFFFF;" d="M85.433,143.753c-0.017-0.79-0.022-1.579,0-2.368c0.028-0.982-0.147-2.263-1.243-2.317
							c-1.788-0.089-3.511,2.047-3.482,3.35c0.029,1.302,1.881,3.67,3.563,3.649C85.281,146.052,85.455,144.773,85.433,143.753z"/>
					</g>
				</g>
				<g>
					<g>
						<polygon style="fill:#FFFFFF;" points="109.281,144.484 114.349,144.641 114.398,142.147 109.329,141.99 						"/>
					</g>
					<g>
						<path style="fill:#FFFFFF;" d="M114.209,144.635c0.048-0.789,0.083-1.576,0.091-2.367c0.01-0.983,0.235-2.255,1.332-2.267
							c1.79-0.02,3.429,2.182,3.35,3.482c-0.079,1.3-2.022,3.595-3.702,3.508C114.272,146.939,114.148,145.654,114.209,144.635z"/>
					</g>
				</g>
			</g>
			<g>
				<path style="fill:#131618;" d="M115.666,98.836l-14.46,19.471c-0.49,0.66-1.467,0.693-2,0.067L81.821,97.993
					c-0.857-1.005-2.49-0.21-2.227,1.085l9.565,47.148c0.354,1.743,1.213,3.343,2.471,4.6l1.217,1.216
					c0.983,0.983,1.716,2.172,2.16,3.467l13.439,0.26c0.233-1.347,0.763-2.633,1.571-3.753l0.869-1.204
					c0.904-1.253,1.472-2.716,1.65-4.251l5.429-46.814C118.114,98.446,116.446,97.785,115.666,98.836z"/>
			</g>
			<g>
				<path style="fill:#5C5E5E;" d="M86.51,308.893v12.952c0,0.598,0.485,1.083,1.083,1.083h28.048c0.598,0,1.083-0.485,1.083-1.083
					v-13.232c0-0.602-0.492-1.089-1.094-1.083l-28.048,0.28C86.988,307.816,86.51,308.299,86.51,308.893z"/>
			</g>
			<g>
				<path style="fill:#2E3031;" d="M90.136,309.699v11.058c0,0.467,0.379,0.846,0.846,0.846h21.271c0.467,0,0.846-0.379,0.846-0.846
					v-11.058c0-0.467-0.379-0.846-0.846-0.846H90.982C90.515,308.853,90.136,309.232,90.136,309.699z"/>
			</g>
			<g>
				<g>
					<path style="fill:#95979A;" d="M89.109,310.122c0,0.434-0.352,0.785-0.786,0.785c-0.434,0-0.786-0.352-0.786-0.785
						c0-0.434,0.352-0.786,0.786-0.786C88.757,309.337,89.109,309.689,89.109,310.122z"/>
				</g>
				<g>
					<path style="fill:#95979A;" d="M89.109,315.171c0,0.434-0.352,0.786-0.786,0.786c-0.434,0-0.786-0.352-0.786-0.786
						c0-0.434,0.352-0.785,0.786-0.785C88.757,314.385,89.109,314.737,89.109,315.171z"/>
				</g>
				<g>
					<path style="fill:#95979A;" d="M89.109,320.219c0,0.434-0.352,0.786-0.786,0.786c-0.434,0-0.786-0.352-0.786-0.786
						c0-0.434,0.352-0.786,0.786-0.786C88.757,319.434,89.109,319.785,89.109,320.219z"/>
				</g>
				<g>
					<path style="fill:#95979A;" d="M115.696,310.122c0,0.434-0.352,0.785-0.785,0.785c-0.434,0-0.786-0.352-0.786-0.785
						c0-0.434,0.352-0.786,0.786-0.786C115.344,309.337,115.696,309.689,115.696,310.122z"/>
				</g>
				<g>
					<path style="fill:#95979A;" d="M115.696,315.171c0,0.434-0.352,0.786-0.785,0.786c-0.434,0-0.786-0.352-0.786-0.786
						c0-0.434,0.352-0.785,0.786-0.785C115.344,314.385,115.696,314.737,115.696,315.171z"/>
				</g>
				<g>
					<path style="fill:#95979A;" d="M115.696,320.219c0,0.434-0.352,0.786-0.785,0.786c-0.434,0-0.786-0.352-0.786-0.786
						c0-0.434,0.352-0.786,0.786-0.786C115.344,319.434,115.696,319.785,115.696,320.219z"/>
				</g>
			</g>
			<g>
				<path style="fill:#5C5E5E;" d="M109.5,310.21H93.734c-1.286,0-2.329,1.043-2.329,2.329c0,1.286,1.043,2.329,2.329,2.329H109.5
					c1.286,0,2.329-1.043,2.329-2.329C111.829,311.253,110.786,310.21,109.5,310.21z"/>
			</g>
			<g>
				<path style="fill:#5C5E5E;" d="M109.5,315.654H93.734c-1.286,0-2.329,1.043-2.329,2.329s1.043,2.329,2.329,2.329H109.5
					c1.286,0,2.329-1.043,2.329-2.329S110.786,315.654,109.5,315.654z"/>
			</g>
			<g>
				<g>
					<path style="fill:#95979A;" d="M96.106,312.539c0,0.434-0.352,0.786-0.786,0.786c-0.434,0-0.785-0.352-0.785-0.786
						c0-0.434,0.352-0.786,0.785-0.786C95.754,311.754,96.106,312.106,96.106,312.539z"/>
				</g>
				<g>
					<path style="fill:#95979A;" d="M98.723,312.539c0,0.434-0.352,0.786-0.785,0.786c-0.434,0-0.786-0.352-0.786-0.786
						c0-0.434,0.352-0.786,0.786-0.786C98.371,311.754,98.723,312.106,98.723,312.539z"/>
				</g>
				<g>
					<path style="fill:#95979A;" d="M101.34,312.539c0,0.434-0.352,0.786-0.786,0.786c-0.434,0-0.786-0.352-0.786-0.786
						c0-0.434,0.352-0.786,0.786-0.786C100.988,311.754,101.34,312.106,101.34,312.539z"/>
				</g>
				<g>
					<path style="fill:#95979A;" d="M103.956,312.539c0,0.434-0.352,0.786-0.786,0.786c-0.434,0-0.785-0.352-0.785-0.786
						c0-0.434,0.352-0.786,0.785-0.786C103.605,311.754,103.956,312.106,103.956,312.539z"/>
				</g>
				<g>
					<path style="fill:#95979A;" d="M106.573,312.539c0,0.434-0.352,0.786-0.785,0.786c-0.434,0-0.786-0.352-0.786-0.786
						c0-0.434,0.352-0.786,0.786-0.786C106.221,311.754,106.573,312.106,106.573,312.539z"/>
				</g>
				<g>
					<path style="fill:#95979A;" d="M109.19,312.539c0,0.434-0.352,0.786-0.786,0.786c-0.434,0-0.785-0.352-0.785-0.786
						c0-0.434,0.352-0.786,0.785-0.786C108.838,311.754,109.19,312.106,109.19,312.539z"/>
				</g>
			</g>
			<g>
				<g>
					<path style="fill:#95979A;" d="M96.106,317.983c0,0.434-0.352,0.786-0.786,0.786c-0.434,0-0.785-0.352-0.785-0.786
						c0-0.434,0.352-0.785,0.785-0.785C95.754,317.198,96.106,317.55,96.106,317.983z"/>
				</g>
				<g>
					<path style="fill:#95979A;" d="M98.723,317.983c0,0.434-0.352,0.786-0.785,0.786c-0.434,0-0.786-0.352-0.786-0.786
						c0-0.434,0.352-0.785,0.786-0.785C98.371,317.198,98.723,317.55,98.723,317.983z"/>
				</g>
				<g>
					<path style="fill:#95979A;" d="M101.34,317.983c0,0.434-0.352,0.786-0.786,0.786c-0.434,0-0.786-0.352-0.786-0.786
						c0-0.434,0.352-0.785,0.786-0.785C100.988,317.198,101.34,317.55,101.34,317.983z"/>
				</g>
				<g>
					<path style="fill:#95979A;" d="M103.956,317.983c0,0.434-0.352,0.786-0.786,0.786c-0.434,0-0.785-0.352-0.785-0.786
						c0-0.434,0.352-0.785,0.785-0.785C103.605,317.198,103.956,317.55,103.956,317.983z"/>
				</g>
				<g>
					<path style="fill:#95979A;" d="M106.573,317.983c0,0.434-0.352,0.786-0.785,0.786c-0.434,0-0.786-0.352-0.786-0.786
						c0-0.434,0.352-0.785,0.786-0.785C106.221,317.198,106.573,317.55,106.573,317.983z"/>
				</g>
				<g>
					<path style="fill:#95979A;" d="M109.19,317.983c0,0.434-0.352,0.786-0.786,0.786c-0.434,0-0.785-0.352-0.785-0.786
						c0-0.434,0.352-0.785,0.785-0.785C108.838,317.198,109.19,317.55,109.19,317.983z"/>
				</g>
			</g>
			<g>
				<path style="fill:#5C5E5E;" d="M86.51,338.689v12.952c0,0.598,0.485,1.083,1.083,1.083h28.048c0.598,0,1.083-0.485,1.083-1.083
					v-13.233c0-0.602-0.492-1.089-1.094-1.083l-28.048,0.28C86.988,337.612,86.51,338.095,86.51,338.689z"/>
			</g>
			<g>
				<path style="fill:#2E3031;" d="M90.136,339.495v11.058c0,0.467,0.379,0.846,0.846,0.846h21.271c0.467,0,0.846-0.379,0.846-0.846
					v-11.058c0-0.467-0.379-0.846-0.846-0.846H90.982C90.515,338.649,90.136,339.028,90.136,339.495z"/>
			</g>
			<g>
				<g>
					<path style="fill:#95979A;" d="M89.109,339.918c0,0.434-0.352,0.786-0.786,0.786c-0.434,0-0.786-0.352-0.786-0.786
						c0-0.434,0.352-0.785,0.786-0.785C88.757,339.133,89.109,339.485,89.109,339.918z"/>
				</g>
				<g>
					<path style="fill:#95979A;" d="M89.109,344.967c0,0.434-0.352,0.786-0.786,0.786c-0.434,0-0.786-0.352-0.786-0.786
						c0-0.434,0.352-0.786,0.786-0.786C88.757,344.181,89.109,344.533,89.109,344.967z"/>
				</g>
				<g>
					<circle style="fill:#95979A;" cx="88.323" cy="350.015" r="0.786"/>
				</g>
				<g>
					<path style="fill:#95979A;" d="M115.696,339.918c0,0.434-0.352,0.786-0.785,0.786c-0.434,0-0.786-0.352-0.786-0.786
						c0-0.434,0.352-0.785,0.786-0.785C115.344,339.133,115.696,339.485,115.696,339.918z"/>
				</g>
				<g>
					<path style="fill:#95979A;" d="M115.696,344.967c0,0.434-0.352,0.786-0.785,0.786c-0.434,0-0.786-0.352-0.786-0.786
						c0-0.434,0.352-0.786,0.786-0.786C115.344,344.181,115.696,344.533,115.696,344.967z"/>
				</g>
				<g>
					<path style="fill:#95979A;" d="M115.696,350.015c0,0.434-0.352,0.786-0.785,0.786c-0.434,0-0.786-0.352-0.786-0.786
						c0-0.434,0.352-0.786,0.786-0.786C115.344,349.23,115.696,349.581,115.696,350.015z"/>
				</g>
			</g>
			<g>
				<path style="fill:#5C5E5E;" d="M109.5,340.006H93.734c-1.286,0-2.329,1.043-2.329,2.329c0,1.286,1.043,2.329,2.329,2.329H109.5
					c1.286,0,2.329-1.043,2.329-2.329C111.829,341.049,110.786,340.006,109.5,340.006z"/>
			</g>
			<g>
				<path style="fill:#5C5E5E;" d="M109.5,345.45H93.734c-1.286,0-2.329,1.043-2.329,2.329c0,1.286,1.043,2.329,2.329,2.329H109.5
					c1.286,0,2.329-1.043,2.329-2.329C111.829,346.493,110.786,345.45,109.5,345.45z"/>
			</g>
			<g>
				<g>
					<path style="fill:#95979A;" d="M96.106,342.379c0,0.434-0.352,0.786-0.786,0.786c-0.434,0-0.785-0.352-0.785-0.786
						c0-0.434,0.352-0.785,0.785-0.785C95.754,341.593,96.106,341.945,96.106,342.379z"/>
				</g>
				<g>
					<path style="fill:#95979A;" d="M98.723,342.379c0,0.434-0.352,0.786-0.785,0.786c-0.434,0-0.786-0.352-0.786-0.786
						c0-0.434,0.352-0.785,0.786-0.785C98.371,341.593,98.723,341.945,98.723,342.379z"/>
				</g>
				<g>
					<path style="fill:#95979A;" d="M101.34,342.379c0,0.434-0.352,0.786-0.786,0.786c-0.434,0-0.786-0.352-0.786-0.786
						c0-0.434,0.352-0.785,0.786-0.785C100.988,341.593,101.34,341.945,101.34,342.379z"/>
				</g>
				<g>
					<path style="fill:#95979A;" d="M103.956,342.379c0,0.434-0.352,0.786-0.786,0.786c-0.434,0-0.785-0.352-0.785-0.786
						c0-0.434,0.352-0.785,0.785-0.785C103.605,341.593,103.956,341.945,103.956,342.379z"/>
				</g>
				<g>
					<path style="fill:#95979A;" d="M106.573,342.379c0,0.434-0.352,0.786-0.785,0.786c-0.434,0-0.786-0.352-0.786-0.786
						c0-0.434,0.352-0.785,0.786-0.785C106.221,341.593,106.573,341.945,106.573,342.379z"/>
				</g>
				<g>
					<path style="fill:#95979A;" d="M109.19,342.379c0,0.434-0.352,0.786-0.786,0.786c-0.434,0-0.785-0.352-0.785-0.786
						c0-0.434,0.352-0.785,0.785-0.785C108.838,341.593,109.19,341.945,109.19,342.379z"/>
				</g>
			</g>
			<g>
				<g>
					<path style="fill:#95979A;" d="M96.106,347.823c0,0.434-0.352,0.785-0.786,0.785c-0.434,0-0.785-0.352-0.785-0.785
						c0-0.434,0.352-0.786,0.785-0.786C95.754,347.037,96.106,347.389,96.106,347.823z"/>
				</g>
				<g>
					<path style="fill:#95979A;" d="M98.723,347.823c0,0.434-0.352,0.785-0.785,0.785c-0.434,0-0.786-0.352-0.786-0.785
						c0-0.434,0.352-0.786,0.786-0.786C98.371,347.037,98.723,347.389,98.723,347.823z"/>
				</g>
				<g>
					<path style="fill:#95979A;" d="M101.34,347.823c0,0.434-0.352,0.785-0.786,0.785c-0.434,0-0.786-0.352-0.786-0.785
						c0-0.434,0.352-0.786,0.786-0.786C100.988,347.037,101.34,347.389,101.34,347.823z"/>
				</g>
				<g>
					<path style="fill:#95979A;" d="M103.956,347.823c0,0.434-0.352,0.785-0.786,0.785c-0.434,0-0.785-0.352-0.785-0.785
						c0-0.434,0.352-0.786,0.785-0.786C103.605,347.037,103.956,347.389,103.956,347.823z"/>
				</g>
				<g>
					<path style="fill:#95979A;" d="M106.573,347.823c0,0.434-0.352,0.785-0.785,0.785c-0.434,0-0.786-0.352-0.786-0.785
						c0-0.434,0.352-0.786,0.786-0.786C106.221,347.037,106.573,347.389,106.573,347.823z"/>
				</g>
				<g>
					<path style="fill:#95979A;" d="M109.19,347.823c0,0.434-0.352,0.785-0.786,0.785c-0.434,0-0.785-0.352-0.785-0.785
						c0-0.434,0.352-0.786,0.785-0.786C108.838,347.037,109.19,347.389,109.19,347.823z"/>
				</g>
			</g>
			<g>
				<g>
					<path style="fill:#613D27;" d="M109.732,155.825v148.78c0,0.542-0.438,0.976-0.98,0.976H94.852
						c-0.538,0-0.976-0.434-0.976-0.976v-148.78H109.732z"/>
				</g>
				<g>
					<g>
						<g>
							<rect x="93.876" y="169.403" style="fill:#FFFFFF;" width="15.856" height="0.417"/>
						</g>
					</g>
					<g>
						<g>
							<rect x="93.876" y="179.36" style="fill:#FFFFFF;" width="15.856" height="0.417"/>
						</g>
					</g>
					<g>
						<g>
							<rect x="93.876" y="188.85" style="fill:#FFFFFF;" width="15.856" height="0.417"/>
						</g>
					</g>
					<g>
						<g>
							<rect x="93.876" y="197.873" style="fill:#FFFFFF;" width="15.856" height="0.417"/>
						</g>
					</g>
					<g>
						<g>
							<rect x="93.876" y="206.475" style="fill:#FFFFFF;" width="15.856" height="0.417"/>
						</g>
					</g>
					<g>
						<g>
							<rect x="93.876" y="214.505" style="fill:#FFFFFF;" width="15.856" height="0.417"/>
						</g>
					</g>
					<g>
						<g>
							<rect x="93.876" y="222.277" style="fill:#FFFFFF;" width="15.856" height="0.417"/>
						</g>
					</g>
					<g>
						<g>
							<rect x="93.876" y="229.418" style="fill:#FFFFFF;" width="15.856" height="0.417"/>
						</g>
					</g>
					<g>
						<g>
							<rect x="93.876" y="236.038" style="fill:#FFFFFF;" width="15.856" height="0.417"/>
						</g>
					</g>
					<g>
						<g>
							<rect x="93.876" y="242.454" style="fill:#FFFFFF;" width="15.856" height="0.417"/>
						</g>
					</g>
					<g>
						<g>
							<rect x="93.876" y="248.503" style="fill:#FFFFFF;" width="15.856" height="0.417"/>
						</g>
					</g>
					<g>
						<g>
							<rect x="93.876" y="253.976" style="fill:#FFFFFF;" width="15.856" height="0.417"/>
						</g>
					</g>
					<g>
						<g>
							<rect x="93.876" y="259.453" style="fill:#FFFFFF;" width="15.856" height="0.417"/>
						</g>
					</g>
					<g>
						<g>
							<rect x="93.876" y="264.25" style="fill:#FFFFFF;" width="15.856" height="0.417"/>
						</g>
					</g>
					<g>
						<g>
							<rect x="93.876" y="269.047" style="fill:#FFFFFF;" width="15.856" height="0.417"/>
						</g>
					</g>
					<g>
						<g>
							<rect x="93.876" y="273.373" style="fill:#FFFFFF;" width="15.856" height="0.417"/>
						</g>
					</g>
					<g>
						<g>
							<rect x="93.876" y="277.703" style="fill:#FFFFFF;" width="15.856" height="0.417"/>
						</g>
					</g>
					<g>
						<g>
							<rect x="93.876" y="281.562" style="fill:#FFFFFF;" width="15.856" height="0.417"/>
						</g>
					</g>
					<g>
						<g>
							<rect x="93.876" y="285.421" style="fill:#FFFFFF;" width="15.856" height="0.417"/>
						</g>
					</g>
					<g>
						<g>
							<rect x="93.876" y="289.071" style="fill:#FFFFFF;" width="15.856" height="0.417"/>
						</g>
					</g>
					<g>
						<g>
							<rect x="93.876" y="292.353" style="fill:#FFFFFF;" width="15.856" height="0.417"/>
						</g>
					</g>
					<g>
						<g>
							<rect x="93.876" y="295.424" style="fill:#FFFFFF;" width="15.856" height="0.417"/>
						</g>
					</g>
					<g>
						<g>
							<rect x="93.876" y="298.402" style="fill:#FFFFFF;" width="15.856" height="0.417"/>
						</g>
					</g>
					<g>
						<g>
							<rect x="93.876" y="300.905" style="fill:#FFFFFF;" width="15.856" height="0.417"/>
						</g>
					</g>
				</g>
			</g>
			<g>
				<path style="fill:#2E3031;" d="M100.703,334.826c-1.356,0-2.666-0.129-3.895-0.383c-2.167-0.449-5.132-1.423-6.947-3.513
					c-0.535-0.617-0.687-1.437-0.406-2.193c0.298-0.801,1.032-1.378,1.917-1.506c2.216-0.322,6.666-0.861,11.563-0.861
					c3.343,0,6.378,0.25,9.021,0.743c0.907,0.17,1.625,0.797,1.872,1.639c0.233,0.792-0.004,1.643-0.618,2.223
					c-0.911,0.86-2.544,2.067-5.147,2.93c-1.839,0.61-3.852,0.92-5.983,0.92H100.703z"/>
			</g>
			<g>
				<path style="fill:#5C5E5E;" d="M91.543,328.411c3.67-0.532,12.607-1.542,20.193-0.125c0.94,0.176,1.315,1.198,0.654,1.822
					c-0.893,0.843-2.375,1.893-4.704,2.665c-1.791,0.594-3.697,0.859-5.608,0.859h-1.377c-1.229,0-2.456-0.11-3.653-0.358
					c-1.999-0.414-4.694-1.291-6.288-3.127C90.197,329.499,90.636,328.543,91.543,328.411z"/>
			</g>
			<g>
				<g>
					<path style="fill:#95979A;" d="M96.106,330.126c0,0.434-0.352,0.786-0.786,0.786c-0.434,0-0.785-0.352-0.785-0.786
						c0-0.434,0.352-0.785,0.785-0.785C95.754,329.341,96.106,329.693,96.106,330.126z"/>
				</g>
				<g>
					<path style="fill:#95979A;" d="M98.723,330.126c0,0.434-0.352,0.786-0.785,0.786c-0.434,0-0.786-0.352-0.786-0.786
						c0-0.434,0.352-0.785,0.786-0.785C98.371,329.341,98.723,329.693,98.723,330.126z"/>
				</g>
				<g>
					<path style="fill:#95979A;" d="M101.34,330.126c0,0.434-0.352,0.786-0.786,0.786c-0.434,0-0.786-0.352-0.786-0.786
						c0-0.434,0.352-0.785,0.786-0.785C100.988,329.341,101.34,329.693,101.34,330.126z"/>
				</g>
				<g>
					<path style="fill:#95979A;" d="M103.956,330.126c0,0.434-0.352,0.786-0.786,0.786c-0.434,0-0.785-0.352-0.785-0.786
						c0-0.434,0.352-0.785,0.785-0.785C103.605,329.341,103.956,329.693,103.956,330.126z"/>
				</g>
				<g>
					<path style="fill:#95979A;" d="M106.573,330.126c0,0.434-0.352,0.786-0.785,0.786c-0.434,0-0.786-0.352-0.786-0.786
						c0-0.434,0.352-0.785,0.786-0.785C106.221,329.341,106.573,329.693,106.573,330.126z"/>
				</g>
				<g>
					<path style="fill:#95979A;" d="M109.19,330.126c0,0.434-0.352,0.786-0.786,0.786c-0.434,0-0.785-0.352-0.785-0.786
						c0-0.434,0.352-0.785,0.785-0.785C108.838,329.341,109.19,329.693,109.19,330.126z"/>
				</g>
			</g>
			<g>
				<path style="fill:#95979A;" d="M126.479,371.701c0,2.189-1.774,3.963-3.963,3.963c-2.189,0-3.963-1.774-3.963-3.963
					c0-2.189,1.774-3.963,3.963-3.963C124.705,367.738,126.479,369.512,126.479,371.701z"/>
			</g>
			<g>
				<path style="fill:#95979A;" d="M132.271,381.924c0,2.189-1.774,3.963-3.963,3.963c-2.189,0-3.963-1.774-3.963-3.963
					c0-2.189,1.774-3.963,3.963-3.963C130.497,377.961,132.271,379.736,132.271,381.924z"/>
			</g>
			<g>
				<path style="fill:#95979A;" d="M139.282,393.932c0,2.189-1.774,3.963-3.963,3.963c-2.189,0-3.963-1.774-3.963-3.963
					s1.774-3.963,3.963-3.963C137.508,389.969,139.282,391.743,139.282,393.932z"/>
			</g>
			<g>
				<g>
					<path style="fill:#95979A;" d="M92.745,358.637v5.103c0,0.236,0.293,0.427,0.653,0.427h16.928c0.361,0,0.654-0.191,0.654-0.427
						v-5.213c0-0.237-0.297-0.429-0.66-0.427l-16.928,0.111C93.034,358.213,92.745,358.403,92.745,358.637z"/>
				</g>
				<g>
					<g>
						<path style="fill:#35393A;" d="M95.32,359.117c-0.572,0-1.035,0.463-1.035,1.035c0,0.417,0.248,0.775,0.604,0.939v1.664
							c0,0.217,0.176,0.393,0.393,0.393h0.075c0.217,0,0.393-0.176,0.393-0.393v-1.664c0.356-0.164,0.604-0.521,0.604-0.939
							C96.355,359.581,95.892,359.117,95.32,359.117z"/>
					</g>
					<g>
						<path style="fill:#35393A;" d="M97.937,359.117c-0.572,0-1.035,0.463-1.035,1.035c0,0.417,0.248,0.775,0.604,0.939v1.664
							c0,0.217,0.176,0.393,0.393,0.393h0.075c0.217,0,0.394-0.176,0.394-0.393v-1.664c0.356-0.164,0.604-0.521,0.604-0.939
							C98.972,359.581,98.509,359.117,97.937,359.117z"/>
					</g>
					<g>
						<path style="fill:#35393A;" d="M100.554,359.117c-0.572,0-1.035,0.463-1.035,1.035c0,0.417,0.248,0.775,0.604,0.939v1.664
							c0,0.217,0.176,0.393,0.393,0.393h0.075c0.217,0,0.393-0.176,0.393-0.393v-1.664c0.356-0.164,0.604-0.521,0.604-0.939
							C101.589,359.581,101.126,359.117,100.554,359.117z"/>
					</g>
					<g>
						<path style="fill:#35393A;" d="M103.171,359.117c-0.572,0-1.035,0.463-1.035,1.035c0,0.417,0.248,0.775,0.604,0.939v1.664
							c0,0.217,0.176,0.393,0.393,0.393h0.075c0.217,0,0.394-0.176,0.394-0.393v-1.664c0.356-0.164,0.604-0.521,0.604-0.939
							C104.206,359.581,103.743,359.117,103.171,359.117z"/>
					</g>
					<g>
						<path style="fill:#35393A;" d="M105.788,359.117c-0.572,0-1.035,0.463-1.035,1.035c0,0.417,0.248,0.775,0.604,0.939v1.664
							c0,0.217,0.176,0.393,0.393,0.393h0.075c0.217,0,0.393-0.176,0.393-0.393v-1.664c0.356-0.164,0.604-0.521,0.604-0.939
							C106.823,359.581,106.359,359.117,105.788,359.117z"/>
					</g>
					<g>
						<path style="fill:#35393A;" d="M109.44,360.152c0-0.572-0.464-1.035-1.035-1.035c-0.572,0-1.035,0.463-1.035,1.035
							c0,0.417,0.248,0.775,0.604,0.939v1.664c0,0.217,0.176,0.393,0.394,0.393h0.075c0.217,0,0.394-0.176,0.394-0.393v-1.664
							C109.191,360.927,109.44,360.57,109.44,360.152z"/>
					</g>
				</g>
			</g>
			<g>
				<path style="fill:#CDCFD1;" d="M109.297,154.775H94.369c-0.272,0-0.492,0.241-0.492,0.539v4.328
					c0,0.298,0.221,0.539,0.492,0.539h14.928c0.272,0,0.492-0.241,0.492-0.539v-4.328
					C109.789,155.016,109.569,154.775,109.297,154.775z"/>
			</g>
			<g>
				<path style="fill:#CDCFD1;" d="M95.32,360.231c-0.116,0-0.21-0.094-0.21-0.21V156.208l-1.894-13.615
					c-0.016-0.115,0.064-0.221,0.179-0.237c0.115-0.018,0.221,0.064,0.237,0.179l1.896,13.644l0.002,203.841
					C95.531,360.137,95.437,360.231,95.32,360.231z"/>
			</g>
			<g>
				<path style="fill:#CDCFD1;" d="M97.937,360.231c-0.116,0-0.21-0.094-0.21-0.21V156.236l-6.245-23.592
					c-0.03-0.112,0.037-0.227,0.149-0.257c0.113-0.029,0.227,0.037,0.257,0.149l6.252,23.619c0.005,0.018,0.007,0.036,0.007,0.054
					v203.812C98.147,360.137,98.053,360.231,97.937,360.231z"/>
			</g>
			<g>
				<path style="fill:#CDCFD1;" d="M100.554,360.231c-0.116,0-0.21-0.094-0.21-0.21V156.244l-11.925-34.127
					c-0.038-0.11,0.02-0.229,0.129-0.268c0.11-0.038,0.229,0.02,0.268,0.129l11.937,34.16c0.008,0.022,0.012,0.046,0.012,0.069
					v203.812C100.764,360.137,100.67,360.231,100.554,360.231z"/>
			</g>
			<g>
				<path style="fill:#CDCFD1;" d="M103.171,360.231c-0.116,0-0.21-0.094-0.21-0.21V156.208c0-0.016,0.002-0.032,0.005-0.047
					l7.756-33.634c0.026-0.113,0.14-0.184,0.252-0.158c0.113,0.026,0.184,0.139,0.158,0.252l-7.751,33.61v203.788
					C103.381,360.137,103.287,360.231,103.171,360.231z"/>
			</g>
			<g>
				<path style="fill:#CDCFD1;" d="M105.788,360.231c-0.116,0-0.21-0.094-0.21-0.21V156.208l4.153-23.054
					c0.021-0.114,0.129-0.19,0.244-0.17c0.114,0.021,0.19,0.13,0.17,0.244l-4.15,23.017l0.003,203.775
					C105.998,360.137,105.904,360.231,105.788,360.231z"/>
			</g>
			<g>
				<path style="fill:#CDCFD1;" d="M108.405,360.231c-0.116,0-0.21-0.094-0.21-0.21V156.208l1.118-12.838
					c0.01-0.116,0.113-0.202,0.228-0.191c0.116,0.01,0.201,0.112,0.191,0.228l-1.117,12.819l0.001,203.794
					C108.615,360.137,108.521,360.231,108.405,360.231z"/>
			</g>
			<g>
				<g>
					<g>
						<path style="fill:#9A9C9F;" d="M89.825,121.347c-0.025,1.273-1.076,2.284-2.349,2.26c-1.273-0.025-2.284-1.076-2.26-2.349
							c0.025-1.273,1.076-2.284,2.349-2.26C88.838,119.023,89.85,120.075,89.825,121.347z"/>
					</g>
					<g>
						<path style="fill:#CDCFD1;" d="M88.926,121.199c-0.015,0.775-0.655,1.391-1.43,1.376c-0.775-0.015-1.391-0.655-1.376-1.43
							c0.015-0.775,0.655-1.391,1.43-1.376C88.325,119.784,88.941,120.424,88.926,121.199z"/>
					</g>
				</g>
				<g>
					<g>
						<path style="fill:#9A9C9F;" d="M113.642,122.093c-0.025,1.273-1.076,2.284-2.349,2.26c-1.273-0.025-2.284-1.076-2.26-2.349
							c0.025-1.273,1.076-2.284,2.349-2.26C112.655,119.769,113.667,120.82,113.642,122.093z"/>
					</g>
					<g>
						<path style="fill:#CDCFD1;" d="M112.743,121.944c-0.015,0.775-0.655,1.391-1.43,1.376c-0.775-0.015-1.391-0.655-1.376-1.43
							c0.015-0.775,0.655-1.391,1.43-1.376C112.142,120.529,112.758,121.17,112.743,121.944z"/>
					</g>
				</g>
				<g>
					<g>
						<path style="fill:#9A9C9F;" d="M112.832,132.765c-0.025,1.273-1.076,2.284-2.349,2.26s-2.284-1.076-2.26-2.349
							c0.025-1.273,1.076-2.284,2.349-2.26C111.845,130.441,112.857,131.493,112.832,132.765z"/>
					</g>
					<g>
						<path style="fill:#CDCFD1;" d="M111.933,132.617c-0.015,0.775-0.655,1.391-1.43,1.376c-0.775-0.015-1.391-0.655-1.376-1.43
							c0.015-0.775,0.655-1.391,1.43-1.376C111.332,131.202,111.948,131.842,111.933,132.617z"/>
					</g>
				</g>
				<g>
					<g>
						<path style="fill:#9A9C9F;" d="M92.583,131.781c-0.025,1.273-1.076,2.284-2.349,2.26c-1.273-0.025-2.284-1.076-2.26-2.349
							c0.025-1.273,1.076-2.284,2.349-2.26C91.596,129.457,92.608,130.509,92.583,131.781z"/>
					</g>
					<g>
						<path style="fill:#CDCFD1;" d="M91.684,131.633c-0.015,0.775-0.655,1.391-1.43,1.376c-0.775-0.015-1.391-0.655-1.376-1.43
							c0.015-0.775,0.655-1.391,1.43-1.376C91.083,130.218,91.699,130.858,91.684,131.633z"/>
					</g>
				</g>
				<g>
					<g>
						<path style="fill:#9A9C9F;" d="M111.826,143.434c-0.025,1.273-1.076,2.284-2.349,2.26c-1.273-0.025-2.284-1.076-2.26-2.349
							c0.025-1.273,1.076-2.284,2.349-2.26C110.839,141.11,111.85,142.161,111.826,143.434z"/>
					</g>
					<g>
						<path style="fill:#CDCFD1;" d="M110.927,143.286c-0.015,0.775-0.655,1.391-1.43,1.376c-0.775-0.015-1.391-0.655-1.376-1.43
							c0.015-0.775,0.655-1.391,1.43-1.376C110.326,141.87,110.942,142.511,110.927,143.286z"/>
					</g>
				</g>
				<g>
					<g>
						<path style="fill:#9A9C9F;" d="M94.45,142.198c-0.025,1.273-1.076,2.284-2.349,2.26c-1.273-0.025-2.284-1.076-2.26-2.349
							c0.025-1.273,1.076-2.284,2.349-2.26C93.463,139.874,94.474,140.926,94.45,142.198z"/>
					</g>
					<g>
						<path style="fill:#CDCFD1;" d="M93.551,142.05c-0.015,0.775-0.655,1.391-1.43,1.376c-0.775-0.015-1.391-0.655-1.376-1.43
							c0.015-0.775,0.655-1.391,1.43-1.376C92.95,140.635,93.566,141.275,93.551,142.05z"/>
					</g>
				</g>
			</g>
		</g>

</svg>