<?xml version="1.0" encoding="UTF-8"?>
<svg xmlns="http://www.w3.org/2000/svg" version="1.1" viewBox="0 0 4000 4000">
  <!-- Generator: Adobe Illustrator 28.7.7, SVG Export Plug-In . SVG Version: 1.2.0 Build 194)  -->
  <g>
    <g id="Layer_1">
      <rect width="4000" height="4000" style="fill: #ffffff00;"/>
      <g>
        <path d="M2503.785,1152.795c11.216,16.984,9.087,35.04,5.329,53.154-3.386,16.32-9.672,31.724-15.874,47.103-10.905,27.043-13.368,54.652-7.24,83.207,5.083,23.685,4.305,47.608,1.426,71.509-.898,7.461-3.304,14.347-8.74,19.788-1.792,1.794-2.179,3.506-1.284,5.832,7.912,20.566,5.099,41.323.435,61.904-3.544,15.638-7.453,31.253-12.33,46.517-11.718,36.673-12.91,73.738-5.736,111.287,3.5,18.32,4.028,36.759,2.744,55.298-.754,10.878-4.526,20.675-10.942,29.435-1.716,2.342-2.645,4.261-1.223,7.339,7.202,15.59,8.123,31.977,5.667,48.752-1.459,9.962-2.861,19.929-5.071,29.761-.779,3.467-1.271,7.382-3.956,9.675-4.095,3.498-3.427,6.586-.859,10.395,1.665,2.469,3.146,5.139,4.239,7.905,8.544,21.637,22.956,39.391,37.504,57.069,6.11,7.424,13.38,13.512,21.233,19,13.386,9.355,26.742,18.755,40.004,28.284,9.123,6.555,14.073,15.523,15.314,26.772.911,8.258-.22,16.282-1.656,24.306-.62,3.465-1.194,7.207-2.93,10.15-4.788,8.115-2.715,14.652,2.041,22.212,9.742,15.486,12.602,32.805,10.326,50.974-1.177,9.39-4.969,17.755-9.743,25.753-8.174,13.695-18.89,25.273-30.522,36.022-19.799,18.294-39.721,36.455-59.591,54.672-1.807,1.656-3.504,3.454-5.436,4.946-15.536,11.996-21.061,28.683-24.016,47.365-6.447,40.755-24.601,75.804-54.645,104.294-11.573,10.975-25.761,16.968-42.014,18.539,5.278,37.99-7.407,69.033-35.345,94.139.131.432.126.794.301.939,23.405,19.369,30.468,46.356,33.583,74.614,3.8,34.477-1.398,68.414-9.005,101.995-7.281,32.139-17.738,63.362-27.667,94.736-6.659,21.039-12.34,42.371-14.521,64.367-2.53,25.521-2.577,51.132,1.232,76.559,2.335,15.587,3.98,31.303,7.806,46.658,1.733,6.955,1.5,7.004,8.955,6.299,15.443-1.461,30.862-3.342,46.338-4.27,24.845-1.49,49.527-.209,73.907,7.434-9.682,2.732-19.6,3.599-29.341,5.218-30.837,5.127-61.958,8.483-92.585,14.932-39.097,8.232-78.401,15.377-117.795,22.021-57.947,9.773-116.036,18.634-174.177,27.185-33.66,4.95-66.841,12.561-99.642,21.498-30.433,8.292-61.019,15.936-91.571,23.745-19.232,4.916-38.346,10.316-57.491,15.548-16.496,4.509-32.059,11.854-47.292,21.925.91-3.684,3.539-4.771,5.506-6.176,21.714-15.499,43.524-30.885,67.187-43.327,6.137-3.227,9.141-6.531,10.08-14.358,2.099-17.493,4.609-35.066,8.901-52.244,5.82-23.296,7.626-47.235,11.631-70.817,4.132-24.329,3.639-48.797,3.27-73.298-.254-16.879-1.031-33.686-2.907-50.504-2.299-20.612-8.506-39.81-17.718-58.213-7.549-15.081-15.017-30.202-22.535-45.298-12.447-24.991-20.979-51.393-26.786-78.571-5.251-24.576-1.559-48.716,6.705-72.243,2.888-8.221,6.074-16.302,10.433-23.885,1.16-2.018,2.588-3.805.886-6.66-11.471-19.247-16.029-40.146-14.902-62.501.499-9.895.132-10.251-9.551-13.076-10.364-3.023-18.464-9.016-25.331-17.053-5.15-6.027-9.538-12.552-13.284-19.541-7.3-13.618-9.536-27.691-3.887-42.444,1.084-2.83,1.337-4.389-1.753-6.61-24.965-17.946-42.922-40.558-47.413-72.138-3.916-27.53-7.672-55.104-5.432-82.944,2.856-35.481-2.281-70.007-10.311-104.358-2.553-10.919-5.496-21.432-11.689-31.064-5.445-8.469-8.312-18.31-11.658-27.786-7.484-21.195-17.762-40.86-30.816-59.151-6.005-8.414-11.474-17.209-17.244-25.793-17.337-25.789-20.622-53.309-9.93-82.414,1.447-3.94.65-5.876-2.437-8.696-18.165-16.589-29.181-37.059-31.464-61.764-1.314-14.212-.074-28.301,3.882-42.052,2.661-9.247,3.72-18.68,3.684-28.231-.042-11.436-.599-22.861-1.753-34.246-2.211-21.803-9.944-41.618-21.229-60.281-12.986-21.477-17.977-44.719-14.339-69.714.631-4.334,3.734-9.016,2.532-12.474-1.164-3.347-6.707-4.93-9.668-7.937-12.99-13.193-18.74-29.099-16.403-47.57,2.812-22.225,3.207-44.547,2.158-66.843-.643-13.675-6.837-25.645-15.152-36.407-7.909-10.237-13.968-21.358-17.286-33.943-2.976-11.286-2.761-22.176,3.919-32.149,2.115-3.159,1.172-4.547-1.495-6.425-7.4-5.211-11.912-12.593-14.733-21.043-5.723-17.143-8.23-34.634-1.952-52.026,10.016-27.747,8.243-55.608,2.326-83.674-2.306-10.94-4.107-21.915-3.963-33.153.06-4.675.753-9.254,1.903-13.714,3.977-15.422,17.734-25.512,36.318-26.287,19.534-.815,34.548,8.355,46.59,22.812,7.521,9.03,12.886,19.517,17.715,30.197,8.072,17.853,15.575,35.9,20.084,55.096,2.241,9.542,6.184,18.552,11.281,27.011,3.509,5.823,7.101,11.628,10.119,17.708,6.591,13.279,8.959,27.315,6.198,42.006-.549,2.918-.944,6.298-2.66,8.481-4.815,6.125-2.524,10.446,1.309,16.232,18.739,28.283,31.837,58.807,33.832,93.23,1.154,19.902,7.439,37.687,20.381,53.12,8.79,10.481,14.3,22.41,13.884,36.56-.163,5.542-1.094,10.816-3.501,15.797-.831,1.72-2.172,3.352.241,4.859,25.781,16.102,33.181,42.665,39.051,69.775,3.627,16.749,4.806,33.933,6.689,50.975,1.075,9.737,2.137,19.483,3.602,29.165.769,5.086,1.955,10.201,3.707,15.03,7.209,19.872,19.458,36.842,30.883,54.189,3.185-1.336,2.321-3.577,2.288-5.218-.166-8.278,1.386-16.269,3.92-24.058,3.306-10.162,2.484-21.099,6.071-31.178,4.08-11.464,3.857-23.533,4.899-35.397,5.592-63.654,63.13-96.228,110.65-89.542,5.385.758,10.805,1.37,16.129,2.446,12.752,2.578,24.223,7.952,34.341,16.216,13.867,11.327,25.276,24.782,34.213,40.222,4.014,6.936,8.681,12.822,15.3,17.531,5.934,4.221,12.302,8.018,17.744,15.099.943-4.054,1.587-6.771,2.207-9.494,1.828-8.025,4.413-15.836,9.416-22.408,2.997-3.936,3.914-7.924,4.208-12.715,2.09-33.999,15.189-62.188,44.699-80.968,28.024-17.834,58.316-24.794,91.251-17.342,14.793,3.347,27.493,10.2,37.087,22.187,7.143,8.925,14.296,17.848,21.21,26.95,6.046,7.96,9.267,17.25,11.081,26.951,3.055,16.347,5.812,32.76.701,49.238-.561,1.807.3,3.159.936,4.632,7.026,16.272,6.962,33.409,5.867,50.584-.967,15.162-5.307,29.387-13.34,42.387-1.595,2.581-3.018,5.204-1.89,8.971,14.978.916,30.165,1.102,45.329.23,5.548-.319,9.752-4.536,14.338-7.305,2.076-1.253.503-4.119-.034-6.11-2.127-7.891-3.963-15.781-4.649-23.99-1.009-12.093,1.736-23.847,2.516-35.77.103-1.582.454-3.619,1.49-4.59,5.312-4.973,6.012-11.957,8.345-18.203,4.034-10.8,9.786-20.639,16.429-29.977,11.929-16.771,20.303-35.318,27.495-54.468,2.89-7.697,4.298-15.655,4.837-23.883,1.14-17.414,1.562-34.79.369-52.232-.652-9.526.421-19.027,3.332-28.232,3.649-11.541,10.578-20.764,20.531-28.323-9.553-10.083-12.692-22.176-13.731-35.238-1.365-17.175,3.81-31.781,16.454-43.389,10.771-9.888,19.225-21.319,26.239-34.113,7.735-14.108,10.597-28.951,9.469-44.838-.887-12.491-1.549-25.001-2.103-37.511-.605-13.662.32-27.199,4.054-40.45,2.163-7.676,5.171-14.985,10.389-21.062,2.287-2.663,2.447-4.965,1.523-8.113-3.223-10.984-4.385-22.388-6.246-33.634-1.491-9.012-.229-17.845,3.948-26.211,4.014-8.04,8.032-16.059,12.934-23.606,6.235-9.6,11.457-19.772,16.765-29.891,8.791-16.754,11.001-35.164,13.287-53.541,1.243-9.987,2.285-20.005,4.936-29.758,3.58-13.172,11.111-23.427,22.484-30.999,8.471-5.639,16.871-5.869,26.262-1.914,26.175,11.023,36.355,31.886,37.582,58.73.738,16.149-1.358,32.063-3.73,47.947-1.417,9.488-1.454,18.996-1.066,28.517.318,7.792,3.778,14.666,6.906,21.62,8.975,19.945,11.235,40.732,7.147,62.136-2.123,11.117-4.854,15.069-16.668,27.16Z" style="fill: #110505;"/>
        <path d="M1963.012,2642.326c3.933,1.432,3.254-2.497,3.596-3.796,2.629-9.972,4.842-20.054,7.167-30.106.673-2.908,1.289-5.829,2.094-9.483,5.228,4.662,8.113,9.05,6.377,16.282-4.438,18.486-9.285,36.894-12.33,55.7-.481,2.969-.887,5.871-.667,9.747,5.896-20.191,11.552-39.563,17.49-59.899,4.919,11.451,5.076,16.381,2.2,26.52-2.885,10.172-5.424,20.444-8.039,30.691-.322,1.26-.176,2.639-.307,5.089,4.188-9.364,5.641-18.56,10.764-27.959-.31,15.809-4.468,29.512-5.9,43.611,7.652-15.084,10.007-31.784,15.466-47.516.388,7.906-1.969,15.363-3.344,22.962-2.868,15.852-8.834,30.699-14.342,45.756-11.608,31.734-16.893,64.53-14.812,98.442.665,10.836.905,21.697,1.956,32.516.285,2.937.044,5.925-.257,8.9-3.823-20.588-5.706-41.367-7.021-62.299-2.93,6.84-3.107,14.178-3.701,21.323-1.49,17.93-1.134,35.881,1.114,53.753.96,7.631.596,15.145-.637,22.728-1.611,9.909-2.786,19.889-4.117,29.842-.285,2.133-.141,4.381-2.362,6.32-3.088-13.047-4.752-26.021-5.378-39.124-1.029-21.513-.095-43,1.736-64.426,2.245-26.276,4.631-52.558,9.436-78.525,3.051-16.489,6.188-32.972,10.772-49.131-.666-.436-.266-1.183-.509-1.743-.041.669-.221,1.379.523,1.823-2.617-.911-2.332,1.125-2.782,2.616-6.205,20.567-11.907,41.284-15.385,62.491-6.57,40.056-11.184,80.303-10.754,121.011.2,18.897,2.473,37.59,7.238,55.727,3.566,13.573-.288,24.654-7.295,35.306-5.375,8.171-11.644,15.745-18.737,22.587-2.434,2.347-4.998,3.912-8.366,4.632-25.818,5.52-51.334,12.12-75.916,21.937-.437.175-1.005.022-2.181.022,3.775-14.824,5.482-29.883,8.144-44.785,5.887-32.947,12.007-65.972,12.684-99.469.813-40.242.853-80.572-8.295-120.227-4.687-20.317-12.125-39.479-22.475-57.524-5.955-10.383-12.065-20.679-18.265-30.918-8.052-13.297-14.411-27.39-20.743-41.562-9.531-21.331-10.377-43.11-5.179-65.418,3.466-14.874,8.825-29.077,16.327-42.779,6.047,2.972,11.689,6.137,17.625,8.591,20.66,8.54,42.312,13.872,63.943,19.228,5.541,1.372,11.091,2.8,16.717,3.701,4.396.704,6.451,2.95,7.531,7.141,1.405,5.45,3.442,10.737,5.639,17.408,1.897-7.894-2.273-14.194-.829-20.687,9.306,1.545,9.369,1.534,10.849,9.898,1.797,10.158,3.461,20.34,5.22,30.505.168.969-.234,2.249,1.39,2.83.325-13.006.221-25.915-1.282-38.611,3.024-.869,5.087-.237,7.163.394,6.86,2.086,7.206,2.373,7.169,9.535-.068,13.053.888,26.127-.823,39.152-.268,2.041-.037,4.148-.037,7.9,4.569-17.103,4.658-33.228,7.521-48.898,2.94.413,4.339,2.293,6.238,3.278,3.907,2.028,4.811,4.97,4.376,9.376-1.334,13.521-1.597,27.136-3.444,40.625-.326,2.384-.046,4.851.195,7.307,4.137-15.818,5.342-32.152,8.443-48.88,6.601,4.02,10.726,8.182,9.16,16.454-2.223,11.737-3.474,23.656-5.401,35.454-.369,2.258-.5,4.849-2.356,6.694.784.418.279,1.238.564,1.812.022-.682.215-1.415-.562-1.855Z" style="fill: #fff;"/>
        <path d="M2068.715,2414.944c18.024-9.219,34.627-20.48,49.289-34.492,5.522-5.277,12.098-8.968,19.288-12.173-3.171,2.9-6.377,5.764-9.504,8.711-3.168,2.986-6.081,6.27-9.424,9.038-5.304,4.392-9.614,9.598-13.474,15.219-4.487,6.534-10.649,11.593-15.882,18.206,6.359-.053,11.33-3.978,17.345-3.877-22.827,11.425-46.876,19.813-70.268,28.454,9.539.38,18.798-3.927,28.691-5.769-12.762,8.83-24.959,18.472-40.023,23.71,10.035-1.101,20.069-2.201,31.966-3.506-8.771,5.636-17.354,6.959-25.403,10.52,11.735,2.334,24.747.769,34.898-3.305,7.511-3.014,14.025-8.182,22.071-9.959l-.155-.171c-3.388,5.458-8.938,8.289-14.27,11.132-20.253,10.798-41.486,17.73-64.899,15.295-2.416-.251-4.872-.546-7.843.427,27.229,5.544,52.613,2.364,76.501-11.076,11.88-6.684,22.982-14.554,33.988-22.561,1.87-1.36,3.758-2.696,6.391-4.583-.454,5.211-3.288,7.778-5.988,10.346-27.237,25.911-58.674,42.889-96.866,45.566-1.599.112-4.343-1.556-4.689,1.942-2.444-.065-4.857.593-6.174.208,1.245-.104,3.655.194,6.016-.331,12.239-.265,24.417-.782,36.517-3.147,14.626-2.859,28.116-8.3,40.806-15.958,3.165-1.91,6.375-3.744,10.09-5.054-7.244,9.374-14.143,18.94-23.049,26.766-1.331,1.17-3.445,1.541-5.261,2.055-28.789,8.155-58.03,12.022-87.994,9.508-3.903-.328-7.667-2.33-13.409-.781,30.785,10.247,60.318,7.699,91.629,2.203-6.509,5.888-11.474,10.565-19.219,11.65-29.065,4.071-57.534,1.028-85.662-6.534-4.893-1.315-9.595-3.342-15.252-5.347,7.125,6.692,20.564,12.045,40.368,16.654,13.985,3.255,28.164,4.949,42.574,5.664-6.594,3.551-13.446,5.409-20.931,4.487-27.148-3.342-53.515-9.532-78.406-21.224-1.121-.526-2.051-1.938-4.254-.928,16.821,13.201,36.359,19.732,55.992,26.16-10.405,1.273-20.591-.141-30.797-.905-2.814-.21-5.066-1.884-7.4-3.263-18.772-11.102-37.11-22.809-52.972-37.976-.666-.637-1.249-1.754-3.484-.914,11.405,14.452,25.733,25.21,39.326,36.782-27.437-17.167-52.722-36.896-74.274-61.245,12.742,23.169,32.588,39.731,54.096,56.993-9.217-1.13-16.24-2.47-22.428-7.657-19.503-16.349-37.028-34.439-51.458-55.534,7.146,19.801,19.637,36.043,34.576,51.103-7.691-.624-19.941-6.8-24.779-12.442-11.615-13.544-21.113-28.326-26.578-45.492-.972-3.053-1.534-6.38-4.409-9.325,2.246,18.924,9.152,35.428,20.46,51.591-7.74-1.479-13.173-3.953-16.592-10.073-6.758-12.099-10.703-24.94-10.718-38.881-.003-2.705,0-5.41-.356-8.123-3.482,9.048-3.171,18.312-.923,29.08-6.298-6.003-10.239-12.053-11.123-18.852-1.326-10.198-1.747-20.674,1.122-30.811,3.835-13.551,10.058-16.758,23.824-12.689,10.625,3.141,19.823,8.804,28.309,15.787,6.094,5.014,12.025,10.277,18.463,14.812,14.355,10.114,30.179,16.227,48.06,15.365,15.529-.749,28.33-7.293,38.03-19.426,8.585-10.739,9.351-20.734,1.897-32.388-6.296-9.845-13.34-19.226-20.311-28.62-9.603-12.941-15.57-27.346-18.19-43.183-2.718-16.429,1.363-31.344,10.584-44.905,4.896-7.2,12.145-10.666,20.788-11.244,6.348-.425,12.445,1.055,18.527,2.537,11.101,2.705,22.192,5.313,33.624,6.431,17.346,1.696,32.97-2.208,46.586-13.251,8.276-6.713,17.213-12.358,26.491-17.57,3.661-2.057,6.361-1.677,9.576.686,6.929,5.093,12.505,11.269,16.49,18.89,1.112,2.126,1.677,4.569,3.906,6.548-1.255-13.017-8.288-22.393-17.865-30.87,5.489-3.345,11.124-3.873,16.47-5.272,2.662-.697,4.045.918,5.365,2.725,10.033,13.734,15.515,28.6,11.48,45.868-.236,1.011-.031,2.125-.031,3.434,7.979-15.617,7.271-25.986-3.413-52.053,11.258-1.367,18.487,2.91,22.449,13.776,3.836,10.517,4.313,21.21.942,32.032-1.87,6.004-4.628,11.597-7.237,17.27-1.778,7.538-6.492,13.514-10.486,19.733.068-.103-.155.21-.155.21,0,0,.189-.247.249-.347,4.555-5.143,6.169-12.306,12.014-16.357,8.272-12.832,10.059-17.621,14.749-40.051,2.056,6.044,2.981,11.224,3.104,16.54.118,5.083.025,10.17.025,17.03,6.227-8.885,9.577-17.359,14.154-25.112-7.833,31.266-27.14,55.142-49.593,77.179,15.239-7.17,24.311-22.152,38.102-31.12.414.355.828.71,1.243,1.065-2.591,3.179-4.976,6.56-7.826,9.488-3.711,3.812-6.263,8.137-7.543,13.268-1.499,6.01-4.955,10.579-9.606,14.703-16.492,14.623-33.001,29.184-52.075,40.469-4.418,5.195-11.199,6.269-15.645,9.33,5.216-1.958,10.662-5.994,17.06-7.915Z" style="fill: #fff;"/>
        <path d="M2227.158,2573.342c-.557,4.702,1.086,9.144,1.746,13.686,3.305,22.75-.002,45.096-4.362,67.267-8.976,45.634-18.182,91.227-27.792,136.732-10.711,50.719-12.836,101.941-10.557,153.523.196,4.439,3.585,9.966-.189,13.088-2.897,2.396-8.246,1.913-12.531,2.528-9.897,1.422-19.81,2.733-30.53,4.201,4.259-14.684,7.252-28.674,9.892-42.746,4.019-21.423,8.005-42.839,5.621-64.809-4.238-39.064-10.958-77.716-24.944-114.521-11.357-29.884-26.719-57.774-49.235-81.125-16.153-16.752-26.479-36.546-29.465-59.719-2.09-16.219,1.217-31.936,6.245-47.323.801-2.452,2.512-4.084,4.678-5.418,9.959-6.135,19.767-12.523,29.849-18.446,7.359-4.323,10.53-3.652,16.452,2.164,10.567,10.379,19.063,22.332,26.576,35.025,3.04,5.135,5.993,10.322,9.487,15.204-7.442-20.923-17.58-40.375-32.395-57.774,4.178-2.184,7.522-.022,10.853-.066,11.104-.145,16.885,6.697,21.691,15.518,7.554,13.863,13.506,28.41,19.662,42.916-3.84-19.11-11.33-36.907-20.224-54.14.686-.34.93-.57,1.168-.565,13.723.328,13.819.277,20.529,12.385,8.32,15.011,15.758,30.396,19.432,47.34,1.069,4.931.393,10.241,3.201,14.794.156-26.568-10.322-50.096-21.75-73.798,4.979-.475,9.35-.591,13.597-1.379,4.597-.852,6.792.958,8.759,5.013,14.569,30.026,23.641,61.352,23.338,95.009-.017,1.9-.002,3.801-.002,6.428,3.938-13.646,3.725-32.765-.173-54.806-3.233-18.281-10.006-35.428-17.28-52.816,10.251-2.074,19.91-3.624,29.139-6.825,3.61-1.252,4.859.504,5.984,3.377,3.676,9.387,6.664,19.002,9.094,28.761,5.743,23.062,9.63,46.35,7.098,70.258-.483,4.556-1.169,9.091-1.887,14.608,10.121-17.891,8.665-71.425-8.763-120.245,5.425-2.198,10.901-4.387,16.351-6.637,2.379-.982,3.461.371,4.508,2.167,3.712,6.364,6.865,12.987,9.311,19.936,4.641,13.184,7.193,26.883,7.924,40.727.745,14.1,2.742,28.162,1.893,42.353-.258,4.318.375,8.683.479,13.03.417,17.497-3.428,34.562-5.457,51.801-3.782,32.131-10.642,63.677-19.3,94.836-.646,2.326-1.414,4.618-2.513,6.875-.693-5.707.578-11.256,1.85-16.728,6.276-27.016,11.699-54.203,14.809-81.765,1.483-13.136,1.606-26.425,1.871-39.69-3.831,17.793-6.114,35.836-10.379,53.499-5.421,22.448-11.416,44.755-16.026,67.4-1.896,9.311-3.472,18.682-5.301,28.004-4.414,22.502-11.471,44.185-18.949,65.767-3.448,9.952-6.78,19.923-8.842,30.312-.731-14.39.846-28.616,1.864-42.863,3.405-47.673,17.252-92.873,32.48-137.779,8.299-24.475,15.723-49.215,19.744-74.851,3.792-24.177,3.154-48.094-3.934-71.713.605,6.889,1.083,13.792,1.84,20.664,2.025,18.384-.631,36.412-4.405,54.274-6.99,33.078-18.214,64.93-29.313,96.762-14.982,42.97-23.453,87.077-25.933,132.479-.921,16.86-1.54,33.719-2.045,50.588-.253,8.46-2.47,16.612-6.946,24.97-2.146-3.948-1.454-8.106-1.523-12.1-.887-51.102,4.156-101.569,14.868-151.594,9.171-42.825,16.998-85.942,23.211-129.31,3.451-24.089,4.002-48.219-2.75-71.998-.298-1.05-.395-2.112-1.624-2.508l-.045-.397.27.182Z" style="fill: #fff;"/>
        <path d="M1764.791,2235.002c6.404,5.657,14.551,8.807,20.903,14.555,1.589,1.438,3.432,2.597,5.554,4.18-3.302,3.953-6.729,5.102-11.49,3.713-8.884-2.592-17.919-4.627-27.271-4.555-2.591.02-5.296-.33-8.586,2.199,11.535.857,21.574,3.155,32.985,7.524-12.86,1.915-24.251,1.337-35.13,4.69,9.552.994,19.182-.517,28.785.851-.329,3.313-2.958,2.637-4.867,2.879-13.532,1.716-26.804,4.462-39.452,9.737-1.734.723-3.403,1.601-5.004,2.822,13.007-3.092,25.948-6.365,41.113-6.237-6.748,6.468-14.509,6.823-20.753,10.248-6.335,3.475-12.948,6.447-18.814,10.881,7.363-1.261,13.924-5.368,23.174-6.453-8.077,5.031-15.021,8.506-20.104,14.619,5.497-1.229,10.029-4.851,17.206-6.637-4.682,5.129-8.475,8.796-11.664,12.928-2.694,3.491-5.025,2.958-8.219.913-14.367-9.197-22.867-22.034-25.469-38.988-3.972-25.874-6.475-51.884-6.303-78.041.432-65.547-13.874-127.829-40.399-187.527-5.301-11.929-10.54-23.883-16.894-35.309-5.98-10.752-13.902-20.03-21.365-29.74-10.383-13.511-18.738-28.565-24.913-44.61-1.7-4.418-1.435-9.158-.481-13.722,5.495-26.299,20.5-44.6,45.949-53.834,7.911-2.87,16.294-4.407,23.88-8.226,2.959-1.49,3.889.367,4.607,2.622,2.988,9.383,4.382,19.059,5.177,28.833.169,2.08.025,4.186.025,7.782,4.001-4.314,3.873-8.575,4.259-12.235.915-8.675.574-17.404-1.396-25.983q-1.796-7.82,5.74-12.571c3.762,3.98,4.646,8.993,4.778,14.147.217,8.445-.283,16.866-1.452,25.243-1.575,11.283-1.254,22.574-.029,33.93,1.323-17.137,6.691-33.421,9.541-51.599,4.019,7.831,4.786,15.085,3.533,21.858-4.108,22.191-3.673,44.419-2.044,66.716.352,4.823,1.448,9.591,2.337,14.406-.721-12.944.066-25.874.695-38.796.629-12.907,2.593-25.626,6.648-38.994,6.305,21.607,5.472,42.401,4.115,63.248-1.08,16.586.401,33.12,1.566,49.69.692-16.609,1.673-33.178,2.69-50.661,3.599,2.365,3.694,5.583,4.166,8.188,2.327,12.84,4.387,25.695,3.506,38.878-1.204,18.02,1.621,35.668,6.239,53.171-4.425-32.035-6.467-63.933,4.886-95.158-1.884,16.974-1.952,33.993-1.323,51,.632,17.119,3.677,33.965,6.235,50.877,2.621,17.323,7.637,33.72,16.478,50.896.253-7.761-2.104-13.238-2.906-18.946-1.858-13.212-3.054-26.449-3.178-39.814-.146-15.723-1.456-31.329-7.652-46.124,6.88,9.712,9.189,20.847,10.569,32.335,1.978,16.463,2.047,33.098,4.793,49.499,2.12,12.661,5.249,24.986,10.26,36.814,3.286,7.757,6.551,15.524,9.871,23.267,1.72,4.011,3.758,7.841,8.098,12.103-5.672-17.699-9.813-34.324-12.832-51.197-2.982-16.668-5.706-33.383-8.154-50.146,7.072,17.788,10.602,36.444,14.268,55.07,2.364,12.011,5.562,23.81,9.311,35.459,1.156,3.591,2.379,7.165,4.912,10.263-1.769-16.672-6.813-32.855-6.433-49.967,3.275,11.065,7.714,21.936,9.597,33.233,4.811,28.871,18.24,53.223,36.58,75.36,2.747,3.315,5.631,6.6,6.29,12.693-15.233-12.428-29.808-23.812-43.797-35.874-14.383-12.402-24.389-28.408-34.386-44.324-7.544-6.805-10.328-16.451-14.386-25.173-8.163-17.546-14.203-35.916-18.946-54.666,5.372,20.735,12.174,40.963,21.405,60.375,3.575,7.519,8.394,14.496,10.208,22.806,11.539,22.178,26.08,41.956,45.595,57.89,10.327,8.432,20.207,17.415,30.558,25.817,4.246,3.447,5.212,7.06,2.934,12.493-21.737-16.329-43.198-32.407-62.169-52.383-.724,2.919,1.274,3.829,2.331,5.105,14.506,17.51,32.001,31.818,49.493,46.129,1.474,1.206,2.907,2.463,4.34,3.718q5.042,4.414,1.298,9.867c-3.757,5.451-3.816,5.349-9.164,1.164-11.347-8.881-22.803-17.624-34.215-26.423-4.018-1.678-7.219-4.332-9.427-7.481,1.619,3.455,6.224,4.925,8.096,8.806,11.947,10.64,23.894,21.28,35.9,31.973q-5.858,5.13-10.834,1.066c-11.343-9.266-27.257-17.952-38.282-20.481,12.588,8.631,26.809,15.073,37.158,26.87q-7.906,5.744-15.431.96c-6.417-4.087-12.683-8.434-19.79-11.316-1.719-.697-3.321-1.975-5.351-1.013-.474-.706-1.38-.692-1.981-1.186-.371.519-.165.573.664.435.505-.084,1.009.26,1.438.6Z" style="fill: #fff;"/>
        <path d="M2335.844,2186.556c4.188-2.274,5.044-5.2,6.004-7.914,5.195-14.687,9.231-29.328,6.728-45.429-1.912-12.303-2.036-24.964-2.019-37.465.018-13.245,3.74-25.741,10.226-37.393,1.652-2.967,2.986-4.022,6.19-1.804,18.416,12.75,39.326,14.958,60.9,13.851,5.217-.268,10.048-.02,15.088,1.961,9.466,3.721,19.313,2.258,28.989.321,7.138-1.429,14.228-3.099,22.339-4.881-7,19.286-18.05,35.115-29.098,51.354,1.472-1.284,3.1-2.43,4.393-3.874,12.206-13.642,23.326-28.092,31.03-44.803,2.436-5.284,5.619-8.996,11.13-10.99,4.296-1.554,8.371-3.721,13.41-6.01-2.788,25.236-12.32,46.641-26.785,66.407,1.185-1.121,2.426-2.189,3.539-3.378,1.301-1.389,2.528-2.853,3.722-4.336,12.959-16.099,22.953-33.677,26.453-54.344,1.094-6.462,3.594-11.162,10.783-11.922,1.994,21.876-3.646,38.086-18.868,58.082,2.534-8.166,7.139-15.751,7.383-24.617-3.151,8.057-6.685,15.877-11.376,23.128-4.745,7.334-10.205,14.109-16.078,20.554-6.048,6.638-12.077,13.296-18.265,19.802-9.005,9.468-18.245,18.712-27.2,28.226-10.635,11.299-20.795,22.987-27.482,37.307-.344-6.976,4.386-12.261,5.748-18.702-15.268,16.779-25.663,36.316-33.157,57.39-.543-4.67-.584-4.689,2.268-12.912,1.484-4.278,3.142-8.496,5.376-14.499-3.999,4.288-5.292,7.984-6.771,11.487-3.489,8.265-6.887,16.574-10.051,24.968-2.526,6.699-6.253,12.621-10.373,18.412-5.377,7.557-12.83,11.241-21.634,13.039-1.19-2.482.484-3.906,1.167-5.475,5.422-12.471,10.974-24.885,16.408-37.35,9.8-22.476,23.367-42.293,40.901-59.504,15.928-15.635,32.642-30.484,47.486-47.214,8.858-9.983,17.602-20.051,24.903-31.266,1.091-1.676,2.792-3.195,2.495-5.643-.59.11-.907.072-1.003.201-18.884,25.215-41.778,46.529-65.491,67.005-26.01,22.46-45.788,49.377-59.208,81.011-6.059,14.283-13.433,27.946-20.075,41.948-3.57,7.526-9.093,10.915-17.749,12.795,9.096-21.174,21.148-40.076,27.751-61.377-8.129,16.169-17.757,31.394-27.673,46.443-2.694,4.088-5.506,8.11-8.475,12.001-3.192,4.184-4.151,4.253-8.667,1.165-1.78-1.217-3.402-2.666-5.45-4.291,16.564-19.898,30.499-41.076,37.355-66.473-2.055.286-2.098,2.048-2.857,3.089-.791,1.085-1.314,2.374-1.897,3.601-9.347,19.694-23.293,36.013-37.861,51.91-2.485,2.712-4.656,3.227-7.718,1.348-2.995-1.837-6.736-2.161-10.223-5.016,15.456-12.489,27.274-27.677,35.265-45.861-1.22,1.456-2.506,2.862-3.649,4.376-10.425,13.812-23.217,25.153-36.793,35.741-3.373,2.631-6.39,3.477-10.416,1.922-3.019-1.166-6.303-1.644-9.831-2.517.796-3.339,3.848-4.328,6.095-5.898,11.466-8.011,21.819-17.156,30.012-28.585.792-1.105,1.587-2.212,2.294-3.372.244-.4.224-.962.366-1.648-2.075-.708-2.732,1.209-3.609,2.166-12.688,13.847-28.516,23.46-44.304,33.155-2.537,1.558-4.983,1.988-8.254.878,3.075-5.038,8.495-7.279,12.331-11.173,3.819-3.877,7.992-7.409,11.735-11.353,3.848-4.055,7.363-8.425,10.463-13.215-7.036,5.721-13.833,11.608-21.116,16.87-6.175,4.461-12.473,8.755-18.799,13-1.177.79-2.552,2.777-4.173,1.046-1.932-2.064.204-3.422,1.437-4.708,3.956-4.127,8.103-8.076,11.971-12.282,5.464-5.94,10.923-11.914,14.369-19.561-9.709,8.744-19.522,17.273-29.823,26.031-2.389-5.208-2.071-8.83,2.207-12.469,5.125-4.36,9.9-9.223,14.647-16.228-8.016,2.825-11.726,9.468-18.948,12.406-.432-20.658,2.325-39.74,15.432-56.109,9.284-11.593,20.44-21.11,32.826-29.182,14.386-9.375,29.672-17.131,45.211-24.383,2.896-1.352,6.025-2.204,9.5-3.449,5.974,17.752,7.854,35.551,6.896,54.479Z" style="fill: #fff;"/>
        <path d="M2429.5,1506.306c.15-.977.299-1.954.448-2.931-.281-7.545,3.311-14.391,3.932-21.768,1.282-1.403,1.312-3.372,2.067-4.842-1.08.878-.223,2.759-1.493,3.731-2.063,6.485-2.138,13.601-6.214,19.438-2.893,5.593-3.154,11.911-4.851,17.838-2.019,7.054-3.746,14.188-6.256,21.097-11.512,31.688-15.452,64.412-13.42,97.958.414,6.828,1.558,13.575,3.655,20.024,1.404,4.315-.262,6.148-3.762,7.377-3.549,1.246-7.101,2.627-11.025,2.449-4.851-31.689-2.553-62.565,8.104-92.647,5.647-15.94,8.537-32.554,12.617-48.878.113-.455-.215-1.02-.535-2.36-1.36,3.779-2.653,6.854-3.581,10.036-4.799,16.452-10.808,32.463-16.758,48.527-9.013,24.334-11.769,49.65-9.099,75.508.14,1.353.372,2.72.295,4.066-.134,2.341,1.343,5.713-1.04,6.758-2.875,1.261-6.44.503-9.547-.679-2.336-.889-1.76-3.121-1.914-4.933-.785-9.248-.414-18.489.624-27.686.309-2.736.345-5.405.102-8.226-3.352,12.911-5.611,25.892-5.629,39.181-6.836-.406-6.858-.407-6.648-5.611.35-8.685.772-17.37-.899-26.174-1.402,6.729-2.81,13.457-4.202,20.188-.496,2.396-1.034,4.788-1.403,7.205-.313,2.049-1.464,2.75-3.373,2.52-1.713-.207-2.121-1.418-2.081-2.881.066-2.449.142-4.899.283-7.344.188-3.252.702-6.5-.161-10.678-2.754,5.024-3.378,9.929-4.579,14.603-1.571,6.116-1.458,6.145-9.42,5.842.275-4.147,1.861-8.276,1.114-13.21-3.039,3.188-3.187,6.962-4.206,10.18-1.294,4.088-3.587,5.808-7.74,5.509-2.241-3.402,1.881-7.432-1.646-11.689-1.614,7.636-1.875,16.105-12.815,15.617-1.458-2.933.954-7.23-2.124-10.205-3.354,12.505-3.325,12.576-16.163,17.857-7.486,3.08-14.58,7.355-23.33,8.008-4.778-10.528-5.203-21.51-2.848-32.596,2.681-12.621,8.15-24.198,14.669-35.257,9.261-15.71,18.005-31.69,25.953-48.107,10.55-21.791,16.989-44.469,17.891-68.933.572-15.508,1.121-30.975.867-46.494-.397-24.228,14.69-40.126,38.994-41.919,12.058-.889,23.891.662,35.782,2.106,15.171,1.842,29.956,5.283,44.577,9.681,9.382,2.822,14.369,9.3,16.428,18.337,2.086,9.159,1.608,18.337-.407,27.525-3.844,17.532-7.431,35.121-11.178,52.674-.678,3.175-1.087,6.459-2.812,9.323-11.118,18.464-14.272,39.112-16.66,60.017-.852,7.455-1.255,15.039-4.031,22.181.448-22.165,2.011-44.108,8.357-65.579,5.386-18.226,11.859-36.233,14.329-55.202,1.756-13.479,3.04-27.023,4.281-40.562.459-5.002.498-10.091-1.119-15.052-.641,9.742-1.591,19.424-3.196,29.045-4.263,25.551-11.385,50.41-19.347,74.951-4.671,14.396-7.181,28.954-9.022,43.814-2.461,19.856-2.38,39.622.913,59.378.833,4.994.648,5.025-4.741,10.63-2.434-8.046-3.92-15.89-4.618-23.972-2.547-29.508,2.825-58.022,10.748-86.181,3.096-11.003,6.366-21.929,7.691-33.324,1.006-1.615.147-3.646,1.171-5.257Z" style="fill: #fff;"/>
        <path d="M2165.203,1828.018c29.421,9.695,59.732,14.136,90.594,15.207,14.22.493,28.236-1.234,42.088-4.424,2.523-.582,5.055-1.446,8.334-.768-2.908,4.408-6.287,7.122-10.833,8.714-10.365,3.63-21.016,5.57-31.962,5.806-34.005.734-67.208-4.512-99.882-13.6-1.566-.435-3.152-.799-4.729-1.196-12.075-1.135-22.33-7.426-31.937-10.971,8.007,5.006,19.393,6.297,28.446,12.735,33.504,13.031,68.407,19.391,104.212,21.927-13.985,5.012-28.404,6.684-43.103,6.086-26.69-1.086-51.173-10.015-74.389-22.362-29.287-15.577-58.596-31.221-84.814-51.87-1.211-.953-2.245-2.341-4.039-2.435,7.311,10.622,35.346,30.986,74.132,53.863.417,1.376.275,2.186-1.431,1.414-25.781-11.339-48.918-27.125-71.917-43.084-9.99-6.932-17.431-16.276-22.847-27.235-6.073-12.289-10.395-25.111-12.161-38.719-1.496-11.53,2.634-18.358,13.269-23.374,8.665-4.088,17.481-5.407,26.954-3.543,10.163,2.001,20.212,4.263,29.751,8.395,9.5,4.116,19.43,6.971,29.256,10.146,7.891,2.55,16.066,2.074,25.04,2.437-4.953,10.738-6.111,21.581-6.574,32.754-.298,7.174-2.588,14.39-5.893,21.039-4.001,8.05-10.216,12.302-19.448,12.273-12.247-.039-23.681-2.785-34.328-8.895-8.276-4.75-15.982-10.329-23.73-15.862-2.527-1.804-4.882-4.06-8.405-4.074,16.703,17.335,32.822,34.927,58.056,40.645,21.104,4.781,42.205-9.19,48.444-26.8,2.081-5.873,3.72-11.939,5.077-18.025,2.237-10.033,8.344-17.589,15.22-24.632,3.528-3.614,7.896-5.005,13.261-4.622,29.679,2.118,59.264-.561,88.856-2.326,9.51-.567,19.016-1.206,28.537-.942,12.695.352,23.821,4.859,33.463,13.166,7.139,6.151,9.319,13.525,6.945,22.695-2.776,10.718-7.675,20.28-14.129,29.167-5.585,7.69-11.643,15.132-14.077,24.621-.931,3.628-4.192,4.123-6.915,4.93-13.072,3.874-26.449,6.221-40.058,7.072-30.584,1.912-60.824-1.434-90.972-6.105-2.148-.333-4.313-.555-6.469-.829-6.708.178-13.173-1.746-19.788-2.293-1.401-.963-3.258-1.087-4.509-2.281.525,1.5,2.549.46,3.251,1.739,5.442,1.293,11.265,1.166,16.154,4.439Z" style="fill: #fff;"/>
        <path d="M2333.454,1880.627c-1.369-.662-1.925.461-2.5,1.252-3.364,4.63-6.662,9.354-11.166,12.949-5.911,4.718-12.019,9.19-19.245,14.682.124-7.771.879-12.87,7.186-17.408,13.349-9.604,23.532-21.675,24.442-39.478.373-7.288,2.182-14.505,3.378-21.748.72-4.361,2.349-8.4,4.9-11.991,6.935-9.763,14.03-19.427,18.787-30.517.991-2.31,2.11-2.641,4.35-1.499,10.005,5.104,19.148,11.174,26.915,19.528,14.319,15.401,24.459,33.464,32.535,52.465,9.197,21.635,22.255,40.413,37.277,58.133,8.328,9.824,17.808,18.293,28.332,25.72,12.672,8.944,24.857,18.594,37.707,27.266,11.495,7.757,14.512,18.284,12.681,31.186-2.617,18.436-4.56,20.819-22.347,26.542-2.07.666-4.261,1.091-6.189,2.045-9.678,4.788-19.858,6.503-30.631,6.293-4.281-.083-7.934-.735-11.543-2.932-9.815-5.976-18.759-13.056-27.035-20.986-1.923-1.843-3.48-4.068-5.864-5.503,6.495,11.621,16.083,20.53,25.687,29.537-10.574,3.828-10.973,3.661-19.176-1.977-12.64-8.689-22.015-20.137-29.094-33.607-1.637-3.114-3.294-6.218-4.98-9.4.525,7.198,4.161,16.767,9.69,26.335,4.893,8.468,11.489,15.54,19.407,22.8-7.534,1.269-12.77.142-17.453-4.599-8.007-8.106-13.879-17.404-17.485-28.166-2.314-6.903-5.045-13.611-8.821-20.123-2.371,8.999-1.763,18.622,7.725,46.033-7.702-1.968-13.347-4.863-15.903-13.202-4.353-14.201-5.794-28.747-7.206-43.359-.259-2.686-.352-5.388-.589-9.154-3.595,16.04-3.606,32.306-.277,51.94-8.62-2.839-9.539-3.85-10.754-12.176-2.129-14.591-2.799-29.244-1.798-43.967.091-1.338.012-2.688-.429-4.073-5.028,12.696-4.645,26.082-5.26,39.428-3.626-12.956-6.057-26.056-4.851-41.232-6.25,12.325-3.379,24.236-4.488,36.795-5.336-11.016-5.172-21.67-4.054-32.371.292-2.791,1.538-5.246-2.428-6.426-2.128-.633-.466-2.168.006-3.183,3.259-7.02,6.989-13.841,10.014-22.905-7.703,7.786-11.466,16.231-17.303,23.243.867-12.324,6.032-23.241,10.404-34.45-7.887,7.802-12.622,17.325-16.359,27.511-.865,2.356-.033,7.35-4.662,5.984-3.287-.97-1.315-4.738-1.024-7.146,1.218-10.092,4.017-19.699,9.662-28.317,1.159-1.77,2.111-3.675,3.511-6.139-10.62,6.593-15.909,16.333-20.64,37.139-7.333-1.445-7.029-5.449-5.185-10.581,2.32-6.456,5.758-12.307,9.728-17.864,4.683-6.555,9.389-13.092,14.798-20.631-9.257,6.27-16.828,15.48-31.34,37.538-5.18-9.193-5.234-11.508,1.121-18.92,4.063-4.738,8.795-8.897,13.121-13.417,6.399-6.689,12.018-13.9,14.52-23.057l.196.16Z" style="fill: #fff;"/>
        <path d="M1898.864,1757.909c-.854,9.629,1.737,18.893,3.11,28.269,3.474,23.725,8.54,47.055,17.927,69.273,3.498,8.279,7.228,16.438,11.766,24.191,7.025,12.002,12.833,24.583,18.21,37.38q3.147,7.489,1.964,17.859c-11.71-15.324-18.832-32.656-27.802-49.25-1.642,3.053.389,5.109,1.103,7.23,4.515,13.414,10.18,26.362,16.444,39.051,1.083,2.194,2.087,4.426,3.11,6.649.469,1.018.772,2.047-.667,2.55-1.092.382-2.14.317-2.871-.724-.468-.666-.899-1.369-1.258-2.099-5.896-11.965-15.349-21.47-22.531-32.591.784,4.904,3.572,8.855,6.044,12.917,4.102,6.741,8.213,13.472,11.309,20.751.445,1.046,1.887,2.321-.061,3.427-1.636.93-3.065.773-4.31-.7-2.633-3.115-5.181-6.309-7.943-9.306-3.871-4.202-8.217-7.858-14.889-11.401,6.271,8.57,12.323,15.355,17.374,23.742-11.352,3.825-22.193,7.861-31.694,14.671-9.331,6.688-18.015,13.919-21.534,25.78-4.369-1.7-5.513-5.211-6.904-8.316-3.739-8.341-4.718-17.286-4.99-26.289-.599-19.864.657-39.739-.356-59.606-1.418-27.796-7.748-54.268-20.546-79.131-6.397-12.428-14.094-23.869-23.62-34.103-7.602-8.168-15.312-16.248-22.162-25.08-9.316-12.013-14.159-25.421-13.864-40.847.303-15.813,6.336-28.598,18.777-38.077,8.262-6.294,15.942-13.149,23.244-20.485,8.557-8.596,19.744-10.947,31.048-12.985,2.32-.418,4.203.718,6.076,1.878,6.344,3.931,11.699,8.904,15.691,15.222,10.419,16.491,17.51,34.32,21.235,53.476.821,4.224,1.607,8.455,2.707,12.605-.365-27.304-9.118-52.286-21.648-76.221,14.63,14.233,27.163,42.909,31.661,70.887,1.905-16.995-4.269-32.507-10.136-49.547,4.667,2.835,5.894,6.342,7.482,9.497,8.171,16.236,11.721,33.817,14.876,51.507-2.58,10.41.26,21.235-2.454,31.664-.658,2.528-.876,5.303.402,7.863,2.449,16.398,5.112,32.746,10.933,48.382,2.76,7.414,5.926,14.683,10.476,21.146,5.316,7.549,7.618,16.08,9.604,24.837-1.595.924-1.631-.632-2.116-1.143-.733-.772-1.227-1.777-1.784-2.707-9.509-15.876-19.352-31.658-23.285-50.059-4.419-20.673-9.912-41.131-12.781-62.152-1.558,8.26.201,16.372,1.461,24.378,2.238,14.217,5.054,28.353,8.004,42.444,3.146,15.03,9.446,28.906,16.638,42.38,4.611,8.638,9.137,17.339,14.183,25.722,3.821,6.347,5.845,12.796,4.117,20.265-2.472-.538-2.596-3.07-3.44-4.836-3.643-7.62-7.609-15.049-12.278-22.093-15.864-23.936-25.445-50.353-30.894-78.387-2.432-12.51-4.715-25.05-7.127-37.564-.138-.716-.832-1.325-1.268-1.983-.531-.652-.611-1.441-.68-2.234-.121.546.047,1.014.298,1.51.492.97.057-.426.616.508Z" style="fill: #fff;"/>
        <path d="M1639.987,1549.586c-5.819-7.502-11.18-14.413-17.596-22.686,2.775,7.902,6.219,13.618,9.601,19.329,7.269,12.276,10.386,25.092,9.229,39.673-1.069,13.465.653,27.146,1.048,40.734.149,5.143.024,10.293-1.001,15.535-1.219-8.849-2.722-17.67-3.578-26.554-.912-9.463-1.023-19.001-1.824-28.477-1.051-12.427-5.788-23.63-12.531-35.418-.059,3.517,1.291,5.346,2.068,7.324,4.846,12.334,6.419,25.267,6.603,38.366.191,13.607.167,27.228-.213,40.831-.628,22.481,4.041,43.753,13.497,64.08,5.734,12.326,11.252,24.751,15.959,37.514,3.894,10.558,6.413,21.364,5.257,32.739-.105,1.034-.402,2.053-.681,3.06-.052.188-.444.281-1.228.737-3.731-7.094-7.659-14.091-11.144-21.302-4.85-10.034-9.413-20.209-14.02-30.359-8.201-18.068-12.075-37.191-13.416-56.863-.869-12.757-1.398-25.538-1.985-38.312-.649-14.101-1.72-28.136-5.621-42.131-1.598,4.749.58,8.992.848,13.315,1.147,18.52.461,37.041-.28,55.511-1.143,28.487,5.345,54.921,17.849,80.342,7.32,14.881,14.674,29.739,22.193,44.519.786,1.546,2.584,2.861,1.043,5.072-2.417,3.469-5.038,3.544-7.175-.299-4.624-8.316-9.033-16.751-13.553-25.126-1.397-2.588-2.865-5.138-4.4-7.882-2.078,2.31-.279,3.804.36,5.329,4.203,10.025,8.49,20.015,12.755,30.014.427,1,.794,2.042,1.348,2.968,1.413,2.361-.051,3.461-1.823,4.498-2.272,1.328-2.864-.597-3.473-1.949-4.464-9.912-8.819-19.873-13.267-29.792-1.298-2.895-2.107-6.082-5.157-9.017,1.023,7.488,3.639,13.734,5.722,20.092,2.284,6.969,4.988,13.801,7.474,20.705.66,1.833,1.275,3.653-1.35,4.663-2.859,1.1-4.002-.452-4.705-2.786-3.142-10.427-7.082-20.548-11.636-30.434-.787-1.708-1.589-3.409-2.682-5.754-1.306,2.379-.351,3.878.134,5.453,2.963,9.61,5.859,19.241,7.814,29.123.264,1.333.679,2.636.924,3.971.326,1.78-.027,3.191-2.113,3.674-2.165.501-3.592.101-4.328-2.306-1.509-4.935-3.189-9.819-4.897-14.69-1.157-3.3-1.915-6.778-5.04-11.207,1.616,8.305,2.908,14.971,4.211,21.634.365,1.867.673,3.753,1.173,5.585.644,2.359-.336,3.512-2.508,4.241-2.575.865-3.413-.593-4.019-2.606-1.642-5.45-3.288-10.899-4.955-16.341-.307-1.001-.319-2.179-1.706-2.818-.265,5.53,1.749,10.713,2.132,16.087.116,1.619.606,3.207.779,4.825.164,1.536.847,3.534-1.204,4.182-2.386.754-2.43-1.67-2.893-2.971-1.09-3.065-1.815-6.258-2.792-9.367-.477-1.518-1.185-2.964-2.179-5.4-1.163,3.293-.234,5.603.237,7.918.542,2.662.756,5.434,1.643,7.973,1.224,3.505.138,5.453-2.95,7.288-4.675,2.778-9.021,6.121-12.801,10.067-2.03,2.118-3.714,1.833-5.382-.174-6.948-8.358-14.012-16.553-17.566-27.21-6.601-19.795-7.727-39.677-4.317-60.34,4.875-29.535,3.828-59.096-3.324-88.317-3.003-12.272-8.114-23.675-14.471-34.477-6.538-11.111-11.02-23.063-15.121-35.15-3.767-11.101-2.747-22.581-.91-33.928.838-5.181,4.363-8.632,8.645-11.334,8.121-5.124,16.906-9.033,26.158-11.176,14.607-3.384,28.811-8.042,42.955-12.802,8.08-2.719,14.845.346,22.085,2.127,1.493.368,2.204,1.537,2.664,2.838,3.916,11.091,10.661,20.755,15.715,31.27.182.378-.1.979-.309,2.552Z" style="fill: #fff;"/>
        <path d="M2480.211,1198.99c.334-7.858.847-15.732-1.542-23.404-1.254-4.027-2.179-8.237-6.385-12,6.027,16.505,3.284,31.782-1.544,46.944-5.837,18.33-12.049,36.582-14.068,55.85-1.129,10.775-1.766,21.602-2.625,32.405-3.488-.351-2.202-3.128-2.167-4.856.114-5.53-.802-11.105.539-16.593-.219-9.788,1.87-19.315,3.395-28.892,1.941-12.185,2.9-24.531,5.879-36.549-1.156-1.557.384-3.141.4-3.07-.025-.058-1.688,1.534-.413,3.105-1.169-.366-1.994-.27-2.34,1.194-8.075,34.11-16.967,68.028-14.903,103.683,1.369,23.655.394,47.332-3.254,70.816-.634,4.081-.89,8.332-3.936,11.85.205-14.761,2.279-29.334,2.139-44.016-.142-14.87.192-29.753-2.619-45.731-.281,27.15-2.221,52.867-6.915,78.338-.344,1.869-.961,3.694-1.215,5.572-.386,2.853-1.899,3.503-4.536,2.963-2.996-.614-3.038-2.433-2.559-4.86,1.314-6.665,2.56-13.346,3.721-20.039,2.39-13.782,1.716-27.627.591-41.509-.963,12.499-2.608,24.876-5.693,37.021-1.739,6.849-3.545,13.681-5.394,20.501-1.824,6.732-1.864,6.721-9.796,4.946,4.331-15.708,8.106-31.528,7.757-48.029-2.966,14.687-7.188,28.971-12.854,42.823-1.318,3.222-2.643,6.171-7.495,3.873,1.993-9.963,6.183-19.715,5.873-32.167-2.938,10.445-6.229,18.73-9.735,26.949-1.477,3.463-3.361,4.822-7.329,4.592-10.847-.629-21.762-1.394-32.503,1.152-3.612.856-3.995-1.749-4.797-4.008-4.697-13.236-4.717-26.59-1.336-40.136,2.227-8.924,6.111-16.501,13.067-22.935,16.891-15.626,25.25-35.741,28.424-58.18,2.76-19.506,2.005-39.102.688-58.657-.919-13.64-1.263-27.118,2.791-40.432,3.64-11.956,10.961-19.862,23.282-22.648,22.577-5.105,44.307-3.447,64.488,8.823,13.193,8.021,18.133,20.915,13.751,35.776-1.518,5.148-2.993,10.36-6.078,14.945-.809,1.203-.652,3.056-.939,4.611-1.603,1.297-.184,3.59-1.628,4.94-.552,1.62-1.104,3.241-1.656,4.862-3.293.184-2.259-1.955-1.98-3.688.235-3.225.668-6.405,2.119-9.355,1.492-2.054-.057-4.705,1.33-6.779Z" style="fill: #fff;"/>
        <path d="M1549.887,1321.097c-3.44-10.668-7.995-20.773-14.735-30.087,6.652,1.726,11.055,6.666,15.363,11.483,4.403,4.924,8.325,10.278,12.817,15.195-3.759-9.021-9.599-16.725-15.409-24.541,2.367-1.463,3.436.779,4.728,1.791,6.338,4.959,10.784,11.419,14.436,18.52,11.015,21.413,16.235,44.235,17.568,68.199,1.512,27.183,12.417,50.983,27.751,73.012,2.274,3.267,5.283,6.081,6.962,11.023-2.896-.933-4.17-2.573-5.624-3.931-20.284-18.945-30.843-42.987-36.869-69.543-2.772-12.213-4.006-24.663-6.518-36.908-1.894-9.23-4.149-18.281-9.24-26.795-.223.992-.566,1.583-.419,2.003,6.413,18.352,8.82,37.511,11.312,56.634,2.372,18.203,6.45,35.854,15.439,52.076,7.287,13.151,16.277,25.091,25.974,36.527,5.625,6.634,7.566,5.631-.94,11.952-26.59-30.331-40.113-66.744-48.6-105.466-1.734-7.912-3.925-15.724-6.48-23.399,6.85,46.559,15.739,92.453,44.841,131.604-4.4,2.228-6.875,2.69-9.078-2.021-4.486-9.593-9.928-18.733-14.749-28.176-8.543-16.733-14.76-34.393-20.742-52.174,5.269,30.138,17.342,58.248,26.459,87.669-7.257,3.514-14.797,6.521-22.705,8.234-13.934,3.018-27.123,7.961-39.675,14.581-3.151,1.662-4.93,1.513-7.725-.887-10.399-8.928-13.853-20.624-13.703-33.563.11-9.504,1.064-19.024,2.087-28.488,3.678-34.019-2.694-65.527-22.746-93.77-3.966-5.586-6.908-11.72-8.784-18.315-3.961-13.922.176-25.344,13.254-31.417,10.64-4.941,20.57-11.101,31.126-16.106,1.963-.93,4.121-1.471,6.028-2.492,4.013-2.149,6.993-1.21,10.053,2.082,6.564,7.062,11.686,14.989,15.674,23.718.553,1.211.665,3.673,3.073,1.683-.23.336-.344.504-.344.504-.107.365-.06.228.14-.412Z" style="fill: #fff;"/>
        <path d="M2260.937,2118.691c-4.184,1.048-6.67,4.55-9.783,7.044-16.186,12.968-31.421,26.881-43.377,44.075-21.794,31.343-28.467,65.344-18.574,102.394.281,1.052.354,2.19.8,3.161,1.054,2.294.204,3.397-1.954,4.36-2.06.92-3.544,1.105-4.638-1.208-1.76-3.723-4.146-7.049-6.98-10.001-1.837-1.913-1.507-3.791-.811-5.993,4.044-12.798,2.55-25.246-2.544-37.44-4.192-10.035-8.471-20.035-12.523-30.126-2.85-7.096-2.688-7.131,2.747-12.331,41.603-39.803,70.632-87.417,87.308-142.407,6.921-22.823,9.29-46.31,6.609-70.245-1.906-17.014-2.25-34.188-5.167-51.114-.991-5.75-.702-5.91,4.772-7.178,1.808-.419,3.666-.623,5.926-.995.722,3.275,1.561,6.394,2.083,9.565,2.938,17.874,12.155,31.888,26.667,42.332,3.978,2.863,4.313,5.049,2.359,9.28-7.331,15.872-12.326,32.491-15.121,49.793-1.881,11.643-1.55,23.257-.262,34.961.771-7.709.704-15.486,2.438-23.096,4.732-20.769,11.467-40.821,20.869-59.951.779-1.584,1.033-4.073,3.634-3.576,2.278.435,2.204,2.863,2.96,4.522,1.193,2.617-.393,4.724-1.461,6.887-9.636,19.512-14.306,40.436-17.337,61.782-.976,6.876-1.083,13.861.109,21.427,6.198-37.189,13.994-62.227,23.338-74.847,3.192,5.997,4.575,11.35,1.654,18.282-6.245,14.819-10.021,30.466-11.89,46.493-.661,5.669-.629,11.371.352,17.158,3.74-20.715,8.401-41.132,18.172-60.532,4.257,4.701,5.536,8.645,3.142,14.833-7.502,19.387-12.407,39.441-10.876,60.54.157,2.167.436,4.326.957,6.547.875-22.865,8.369-43.875,17.187-64.818,6.483,6.234,6.375,6.186,3.345,13.023-8.478,19.132-13.839,38.954-12.104,60.108.362,4.406-2.545,4.845-5.225,5.886-14.466,5.617-28.697,11.743-42.052,19.712-19.07,11.379-36.19,25.103-50.571,42.14-14.234,16.863-21.43,36.415-22.434,58.309-.474,10.323-.871,20.656,1.136,30.929,1.102,5.638,3.177,10.903,5.023,14.995.208,1.854-.104,2.195-.794,2.279-11.834,1.441-11.557,1.386-13.921-10.347-7.404-36.741,1.582-69.518,23.449-99.302,10.877-14.815,24.312-27.132,38.098-39.113,2.444-2.124,4.836-4.307,7.251-6.463,7.429-8.436,18.04-12.119,25.996-17.993-9.139,4.366-17.426,12.325-27.982,16.261Z" style="fill: #fff;"/>
        <path d="M2127.11,2018.104c6.95,9.11,12.52,19.047,18.174,28.995,5.814,10.231,3.589,19.092-2.091,28.297-12.552-30.531-19.698-42.513-32.95-55.31-1.121,2.076.978,2.904,1.752,4.018,11.523,16.584,18.777,34.927,22.347,54.705,2.237,12.391,2.67,16.722-10.596,30.623,2.57-27.591-3.09-52.081-20.041-73.887-1.07,3.084,1.057,4.842,1.841,6.83,8.478,21.513,11.124,43.683,7.31,66.485-2.173,12.991-3.107,13.773-16.715,19.89,5.867-18.939,10.476-37.391,2.419-56.139,1.118,17.243-3.549,33.28-9.902,48.958-1.323,3.265-2.891,6.469-4.698,9.491-2.651,4.435-5.606,5.526-10.265,3.677-3.007-1.193-5.906-2.807-8.601-4.611-9.997-6.692-18.847-14.782-27.319-23.262-5.326-5.331-8.047-11.137-6.783-19.539,2.485-16.522-.048-33.119-2.133-49.606-.375-2.968-.385-6.058-1.26-8.875-5.123-16.498,3.682-28.264,13.426-39.557,15.52-17.985,36.012-20.982,58.085-18.355,5.924.705,11.719,2.427,17.624,3.36,15.874,2.506,24.299,12.961,29.285,27.422-12.988-12.222-26.475-23.254-46.69-21.272,2.256,1.702,4.371,1.358,6.211,1.81,8.349,2.052,15.699,5.888,22.169,11.61,8.876,7.85,15.964,17.084,21.857,27.281,3.078,5.326,3.457,10.653,1.758,22.362-6.703-10.406-13.124-20.03-21.949-27.647-5.76-1.85-8.828-7.301-13.642-10.212.103.068-.203-.131-.203-.131,0,0,.254.203.353.26,3.964,4.008,9.738,6.226,11.227,12.33Z" style="fill: #fff;"/>
        <path d="M1859.563,2380.424c3.408,2.222,6.699,4.658,10.252,6.619,5.727,3.161,8.311,8.008,8.837,14.983-8.393-3.805-15.487-9.32-24.203-11.28,15.627,9.792,29.464,22.284,47.208,30.127-5.499,1.072-9.317-2.406-13.585-2.729-1.865,1.992,1.448,3.486-.271,5.839-7.805-5.298-15.65-10.621-23.494-15.945,8.373,9.729,17.835,17.933,28.51,24.686,2.792,1.766,5.656,3.21,8.967,3.63,1.223.155,1.99.623,1.251,2.012l.158-.197q-4.814.082-3.239,5.497c-11.903,1.022-22.581-1.801-32.084-8.621-4.846-3.478-9.286-7.55-13.726-11.556-12.457-11.238-26.583-19.695-41.973-26.301-14.409-6.185-27.616-4.886-39.505,5.438-2.475,2.149-4.086,1.67-6.34.325-3.734-2.229-7.53-4.357-11.336-6.461-17.531-9.69-25.222-33.472-15.133-50.788,17.79-30.534,44.227-49.647,79.281-55.907,9.448-1.687,18.982.693,28.441,1.511,3.744.324,6.935,2.828,10.037,6.682-16.56-.266-32.254.375-47.094,6.877,21.517-2.136,43.039-4.688,64.715,2.911-2.029,1.19-3.386.775-4.723.695-1.344-.08-2.708-.258-3.922.668-.231,2.899,2.194,5.591.352,9.104-19.139-6.43-38.723-5.474-58.588-2.564,1.431,1.799,3.205,1.16,4.737,1.3,1.89.174,3.806.062,5.711.066,15.404.039,30.203,3.238,44.599,8.54,3.403,1.253,6.8,2.438,5.953,7.272-.46,2.625,1.574,3.786,3.429,4.992,2.942,1.913,5.841,3.893,9.783,6.53-6.43-.221-10.933-2.694-15.474-4.671-15.742-6.851-32.223-9.573-49.275-9.592-4.055-.004-7.922.53-12.207,2.68,21.324-1.053,40.626,3.586,58.61,13.712,3.569,2.01,7.352,3.796,6.625,9.059-.365,2.641,1.984,3.643,3.682,4.933,3.954,3.004,7.928,5.981,11.545,9.642-19.487-11.801-40.013-20.302-63.174-22.511.739,2.376,2.506,1.563,3.663,1.994,1.517.565,3.09.986,4.651,1.426,13.489,3.799,25.78,10.082,37.276,18,1.751,1.206,4.283,2.122,4.229,4.604-.123,5.686,4.024,7.81,7.832,10.44,4.243,2.931,7.991,6.455,12.196,11.198-7.078-1.433-11.058-6.246-16.179-8.91-5.055-2.63-9.85-5.76-15.196-7.829-7.349-.93-13.057-6.541-20.499-7.188-1.266-.657-2.32-2.309-4.029-.991-.355.274-.265-.068.375-.331.952-.39,2.057.075,2.906.819,6.907,2.33,14.11,4.041,19.441,9.56Z" style="fill: #fff;"/>
        <path d="M2127.255,1634.001c2.421,14.929,2.496,29.762-1.436,44.508-3.253,12.201-6.705,14.791-19.082,12.221-7.959-1.653-15.831-3.991-23.504-6.696-19.316-6.808-38.534-5.839-57.584.49-4.89,1.625-7.345.297-10.212-3.296-10.104-12.66-18.753-26.035-22.654-42.019-2.918-11.955-1.039-23.245,4.94-33.829,3.7-6.551,8.227-8.456,15.78-7.051,5.905,1.098,11.578,3.041,16.87,5.904,14.141,7.651,26.876,5.611,39.254-4.424,21.717-17.606,46.253-16.976,67.604,1.021,7.32,6.17,13.721,13.238,19.711,20.614,8.146,10.03,9.849,22.095,9.444,34.594-.025.767-.35,1.566-.698,2.27-.339.687-.885,1.271-1.964,2.763,1.154-11.136-2.274-20.336-6.292-31.017-1.743,7.332,2.958,13.508-1.587,19.551-4.113-11.064-7.029-22.428-12.864-32.833-1.629,2.038.082,3.472.544,5.001,3.465,11.463,5.688,23.206,8.051,34.923,1.037,5.14-.833,8.728-5.369,12.049-1.76-20.383-5.829-39.538-14.551-57.776-1.889,2.184-.323,3.744.146,5.373,4.904,17.03,8.333,34.279,9.004,52.079.258,6.862-2.397,11.218-9.524,15.123,3.663-19.63,3.728-38.114-2.279-56.206-4.144-4.816-4.224-11.557-8.726-17.616,5.326,8.124,6.735,16.047,6.977,24.277Z" style="fill: #fff;"/>
        <path d="M2483.756,1136.093c-.561-2.686.674-3.952,1.625-5.181,7.897-10.206,9.037-21.802,7.414-34.099-1.462-11.075-3.287-22.103-6.428-32.797-5.56-18.932-5.634-38.074-3.571-57.432,1.212-11.365,2.087-22.765,2.108-34.208.014-7.322-1.341-14.391-4.068-21.266,1.091,17.235-3.204,33.876-4.94,50.771-2.221,21.615-.035,42.898,5.045,63.959,2.878,11.932,4.35,24.019,4.646,36.337.278,11.54-5.371,19.988-11.969,28.445-2.523-1.866-1.06-3.264-.444-4.55,6.803-14.204,7.987-29.101,6.409-44.599-1.161-11.409-2.954-22.633-5.965-33.674-3.746-13.742-5.431-27.715-4.919-41.956.097-2.688.014-5.383-.307-8.065-2.588,17.27-2.187,34.423,1.346,51.556,3.647,17.684,5.001,35.557,2.638,53.548-1.143,8.699-4.888,16.325-10.655,23.062,4.202-12.117,6.758-24.444,6.731-37.238-.026-12.54-1.923-24.807-5.563-38.211-.891,4.862-.396,8.439.105,11.918,2.797,19.437-.876,37.89-8.404,55.722-2.668,6.319-2.919,6.299-9.682,5.767-13.605-1.071-27.178-1.981-40.304,3.132-1.545.602-3.385.999-4.143-1.049-3.001-8.107-7.656-15.657-8.027-24.655-.291-7.06,1.862-13.329,5.208-19.413,7.99-14.529,16.961-28.479,24.397-43.355,9.53-19.067,14.932-38.973,15.896-60.236.58-12.794,2.539-25.432,6.427-37.693,2.025-6.386,5.233-11.954,11.29-15.419,4.584-2.622,9.098-3.018,13.901-.309,14.933,8.422,23.133,20.988,23.617,38.223.383,13.654-1.881,27.128-3.54,40.611-3.214,26.114-.946,51.575,8.444,76.198,5.676,14.884,4.987,29.204-1.996,43.419-3.264,6.645-4.189,7.821-12.325,12.74Z" style="fill: #fff;"/>
        <path d="M1501.535,1134.001c1.028,6.461,4.545,11.99,6.822,17.98,14.08,37.049,23.222,75.3,28.408,114.542.064.484-.231,1.015-.396,1.67-.688.217-1.432.609-2.197.659-1.617.105-3.246.032-5.6.032-.594-9.625-.702-19.318-2.234-28.875-5.964-37.21-15.126-73.483-31.344-107.706-5.578-5.722-7.745-13.497-11.959-19.881.072.115.116.261.176.36,3.222,7.263,8.765,13.328,9.901,21.427,9.642,26.908,17.522,54.3,22.342,82.508,2.659,15.562,4.28,31.258,5.42,46.998.441,6.092.299,6.129-5.376,7.502-7.712,1.865-15.187,4.499-21.92,8.646-7.893,4.861-16.436,8.457-24.356,13.198-2.751,1.646-4.409,1.338-6.06-1.116-2.746-4.08-5.105-8.419-6.675-13.034-4.365-12.834-5.241-25.937-2.952-39.38,1.283-7.533,3.059-14.862,5.288-22.158,5.345-17.498,2.941-35.032-.379-52.503-2.435-12.815-5.781-25.461-6.597-38.566-.341-5.481-.252-10.881.966-16.227,1.196-5.249,3.984-9.33,8.542-12.425,6.662-4.524,13.256-5.493,20.66-1.712,9.238,4.718,16.684,11.139,21.615,20.344,9.133,17.045,17.296,34.52,22.769,53.117,6.454,21.932,13.315,43.65,24.776,63.666,5.286,9.231,6.68,19.3,2.942,29.86-5.049-13.336-7.536-27.568-14.547-40.189,2.93,15.378,4.345,30.9,6.944,46.388-3.322.057-3.303-1.694-3.502-3.323-4.795-39.123-16.877-76.316-30.013-113.229-2.534-7.121-6.149-13.726-9.815-20.304-3.706-3.181-4.478-8.139-7.146-11.794.071.111.122.269.177.365,2.281,4.262,4.665,8.364,5.322,13.162Z" style="fill: #fff;"/>
        <path d="M1970.581,2047.209c-.582,2.536.576,4.771,1.168,7.124,5.106,20.306,6.274,40.779,2.339,61.426-.981,5.147-1.37,5.281-6.4,3.743-6.511-1.991-11.347-6.417-15.738-11.268-17.909-19.786-35.155-40.098-49.122-62.972-6.235-10.211-12.616-20.334-18.941-30.49q-2.978-4.782,1.489-8.864c3.435-3.131,6.539-6.561,9.033-10.484,6.856-10.784,16.633-18.026,28.483-22.096,23.281-7.996,46.787-9.192,70.388-.896,3.215,1.13,4.824,2.684,5.35,6.165.886,5.866,2.387,11.639,3.065,17.706-6.35-6.283-9.99-14.626-17.28-20.025,9.415,15.725,17.802,31.879,21.897,49.954-5.158-8.876-9.471-18.209-15.423-26.573-5.906-8.3-12.266-16.186-20.873-22.813.089,2.542,1.514,3.431,2.451,4.534,23.061,27.127,34.052,59.001,36.978,94.025.38,4.545.766,9.221-2.813,14.521-1.748-40.466-13.416-75.461-45.193-101.244,25.006,28.091,35.957,61.35,36.282,98.5.128,14.635-.651,19.006-4.705,25.087,1.939-24.794.985-47.55-7.656-69.392-8.581-21.688-22.305-39.455-40.31-54.308,34.792,36.713,49.482,79.113,37.454,129.137-.181-8.507.137-17.098-.269-25.697-.713-15.126-4.743-29.439-10.106-43.463-.319-.835-.791-1.3-1.712-1.204-.384-.71-.675-1.438-.46-2.269-.599.949.291,1.462.627,2.137Z" style="fill: #fff;"/>
        <path d="M1983.684,2248.15c-5.129-9.768-5.841-20.695-8.079-31.205-2.382-11.189-4.964-22.284-9.804-32.722-1.945-4.194-4.076-8.271-7.409-12.034-.538,2.825,1.445,4.497,2.352,6.462,5.749,12.467,8.88,25.682,10.859,39.149,2.742,18.65,6.162,37.036,16.491,53.722-4.844,1.385-6.88-1.045-8.887-4.246-7.277-11.601-9.816-24.61-11.888-37.843-2.147-13.716-5.569-27.084-12.242-39.608-1.725,2.131-.107,3.664.428,5.287,4.618,14.005,7.385,28.366,8.505,43.068.645,8.461,2.602,16.615,5.943,24.456.796,1.868,2.525,3.593,1.716,6.354-2.322-.177-2.867-2.098-3.634-3.599-3.884-7.596-5.68-15.828-7.221-24.133-2.381-12.831-5.469-25.431-12.533-36.772,2.127,10.029,5.212,19.813,6.427,30.036,1.24,10.434,2.559,20.9,6.087,30.992-3.234,1.157-4.043-.846-4.502-2.522-1.436-5.242-2.675-10.54-3.875-15.843-2.822-12.468-6.989-24.305-15.851-34.095,7.719,16.094,10.057,33.373,11.506,50.948-5.011-6.834-5.564-15.383-8.621-22.948-3.006-7.437-6.42-14.627-12.567-20.289,7.042,13.361,11.618,27.309,11.293,42.676-4.532-10.169-6.43-21.535-14.268-30.169-1.789,2.355.298,3.748.997,5.248,3.489,7.488,5.107,15.453,6.403,23.519.182,1.132.102,2.285-1.071,2.741-1.898.737-2.203-.846-2.609-2.099-1.42-4.392-2.749-8.815-4.239-13.182-.938-2.749-2.207-5.357-4.642-7.342,1.995,6.21,2.786,12.619,4.049,18.931.32,1.597.641,3.24.596,4.852-.067,2.394-2.188,3.079-3.954,3.413-1.584.299-2.014-1.341-2.427-2.675-4.426-14.279-8.943-28.529-13.313-42.825-3.364-11.004-7.9-21.496-14.582-30.842-2.919-4.082-3.749-8.084-3.553-12.871.425-10.367,2.785-20.465,3.818-30.751,1.876-18.665,4.281-37.277,6.523-55.904.212-1.758-.046-3.775,2.137-5.42,1.901,2.631,3.77,5.235,5.656,7.826,8.503,11.683,17.659,22.818,27.845,33.084,7.319,7.376,15.891,12.412,26.402,13.307,4.762.406,7.821,2.66,10.592,6.392,6.1,8.215,10.502,17.371,13.196,27.003,7.247,25.906,10.951,52.598,16.401,78.954-6.24-10.428-9.572-21.773-11.258-33.662-1.603-11.305-3.086-22.628-6.404-33.608-3.82-12.644-9.682-24.131-19.188-33.632,2.866,8.48,7.983,15.942,11.104,24.306,3.158,8.461,5.27,17.142,6.391,26.08,1.151,9.177,2.27,18.359,3.403,27.539,1.137,1.553.166,3.598,1.206,5.173.296,3.242.841,6.425,2.229,9.409.472,1.766-.301,2.273-1.933,1.912Z" style="fill: #fff;"/>
        <path d="M2145.511,2208.884c-3.01.889-5.112-1.371-7.547-2.305-11.459-4.395-23.211-7.055-37.284-7.12,29.543,6.959,50.15,17.459,52.381,26.214-27.985-12.406-39.894-15.043-57.337-12.422,19.724,1.728,38.683,5.564,53.949,19.708-12.501-5.141-24.91-10.559-38.671-11.144-13.95-.592-27.649.471-41.201,6.087,2.954,1.245,5.225-.106,7.588-.606,2.39-.506,4.829-.786,7.25-1.14,23.624-3.45,45.499.558,64.778,15.357,2.062,1.583,4.844,2.695,5.23,5.89-2.364,2.521-3.961-.05-5.547-.968-9.455-5.478-19.231-10.229-29.9-12.763-15.885-3.774-31.324-1.499-46.466,3.967-16.508,5.959-31.434,14.761-45.97,25.929-8.803-19.834-13.459-39.72-4.201-59.848,9.195-19.992,22.359-37.804,33.904-56.224.729,0,1.055-.099,1.266.014,17.82,9.6,35.492,7.86,53.277-.307,9.632-4.423,18.99-9.189,28.326-17.782-.876,11.611-1.611,21.367-2.41,31.955-3.669-3.669-4.133-8.555-7.972-13.185.54,8.568,3.52,15.311,5.329,23.998-4.384-3.821-7.639-6.658-10.893-9.495,2.415,7.632,9.151,12.517,13.252,21.337-8.58-4.605-15.038-9.423-22.854-11.647,5.451,3.96,10.973,7.828,16.334,11.907,5.403,4.111,10.586,8.498,15.319,13.87-2.417,1.458-3.713-.414-5.039-1.186-7.33-4.266-15.066-7.495-23.208-9.857-3.113-.903-6.121-1.458-10.439-.398,14.477,3.754,25.923,10.846,36.61,19.312.94.745,2.542,1.24,1.972,3.039l.173-.189Z" style="fill: #fff;"/>
        <path d="M2101.49,1926.191c12.611,4.818,25.433,9.111,37.641,14.935,3.135,1.495,6.635,2.406,9.191,5.064-2.927,3.685-6.076,2.362-9.292.813-11.636-5.606-24.074-8.458-36.742-10.341-5.918-.88-11.924-1.17-18.172.068,5.236,1.013,10.316,1.695,15.221,3.024,5.5,1.49,10.85,3.538,16.249,5.392,5.099,1.751,10.178,3.563,15.644,6.571-6.86,2.639-12.839,2.056-18.855.351-9.969-2.825-20.078-4.948-30.463-5.335-14.627-.545-27.965,3.375-39.88,11.95-3.221,2.318-6.417,4.671-10.492,7.639-1.005-13.996-2.259-26.814-.209-39.768,1.189-7.511,2.246-15.132,2.31-22.713.127-15.07,2.725-29.731,5.57-44.437,2.199-11.364,4.729-22.755,3.147-35.773,32.907,23.489,67.113,42.862,96.187,69.538-13.832-4.551-25.84-13.095-39.782-17.253,17.43,11.279,34.022,23.801,52.617,33.332-18.505-6.991-37.706-11.32-56.576-16.864,5.916,4.271,12.633,6.748,19.29,9.281,13.746,5.232,27.036,11.415,39.975,18.392,3.343,1.803,6.193,3.635,3.802,8.866-20.833-9.299-42.26-16.626-65.288-18.22,22.091,7.175,43.537,15.806,64.451,27.319-2.279,2.239-3.822,1.022-5.377.339-12.264-5.384-25.07-8.905-38.23-11.282-4.052-.732-8.066-1.173-12.159-.667l-.168-.298.391.076Z" style="fill: #fff;"/>
        <path d="M2124.656,1531.907c-1.39,2.666,1.37,2.353,2.358,2.958,5.087,3.118,10.319,6,15.467,9.021,1.144.671,2.361,1.527,1.729,3.16-.791,2.045-2.369,1.86-4.031,1.208-7.084-2.782-14.356-4.88-21.791-6.544-3.497-.782-6.927-1.24-10.474-1.043-2.192-1.469-4.619-.63-6.948-.753,2.379.135,4.811-.453,7.131.547,3.906,3.091,8.975,2.671,13.342,4.416,4.751,1.899,9.62,3.501,14.437,5.234,1.525.549,3.739,1.099,3.529,2.787-.236,1.893-2.104,2.998-4.341,2.564-.794-.154-1.604-.23-2.407-.341-14.089-1.644-27.971-5.06-39.931-4.003,10.667.892,24.281-.885,36.47,5.7,2.582.925,5.067,1.842,1.288,4.594-1.998,1.455-4.147,1.037-6.273.657-15.108-2.699-30.289-2.183-45.509-.926,14.411,1.341,29.108-.023,44.301,4.663-6.805,4.759-13.965,5.086-20.932,5.666-5.131.426-10.328-.025-15.478.255-8.873.482-17.028,3.222-24.302,8.437-2.428,1.741-4.969,3.324-7.413,5.044-5.595,3.939-11.144,4.464-17.514,1.271-8.963-4.493-18.306-8.209-28.437-8.372-.346-.714-.811-1.203-.741-1.595,3.035-16.963,8.357-33.129,16.889-48.169,1.912-3.37,4.604-6.017,7.546-8.475,18.064-15.091,38.791-24.737,62.259-25.509,23.593-.776,43.769,7.59,56.054,29.471,7.812,13.914,12.842,28.685,12.706,44.874-.013,1.602-.317,3.202-1.005,4.901-1.425-16.372-4.235-32.26-13.846-46.065-.914-.42-1.698-.975-2.048-1.978-.381,1.323-.403,2.638.083,3.943-.246.911.428,2.169-.994,2.635-7.005-1.768-11.251-7.987-16.993-10.588,4.633,3.976,11.613,6.189,14.677,12.92.885,2.064,4.232,2.78,3.06,6.525-7.575-2.505-14.264-7.202-22.074-8.869l-.52-.536.675.318Z" style="fill: #fff;"/>
        <path d="M2225.188,2376.972c-4.837,6.518-10.405,11.531-19.786,8.968-.212-2.879,3.012-4.272,4.078-6.774.896-4.461,4.697-6.989,6.924-10.413-.069.104.13-.2.13-.2,0,0-.202.256-.256.353-2.873,2.92-4.623,6.825-8.566,8.511-1.964,1.88-3.892,3.8-5.901,5.631q-4.656,4.242-13.221,3.94c4.429-5.343,8.527-10.287,12.708-15.331-2.433-1.711-2.878.792-3.846,1.541-2.358,1.825-4.639,3.816-6.641,6.021-7.54,8.3-16.662,12.797-28.239,11.92-.187-2.367,1.681-4.096,2.841-6.026,13.369-22.246,22.391-45.886,23.406-72.131.105-2.71-.291-5.316,3.834-5.766,17.564-1.917,35.058-4.72,52.809-1.978,10.242,1.582,20.397,3.394,29.784,8.038,2.672,1.322,5.309,2.788,7.749,4.493,14.482,10.117,15.969,21.586,4.693,35.095-1.208,1.447-2.204,3.071-4.096,4.178-1.146-7.897,2.738-15.227-.04-23.667-1.889,8.783-4.431,16.428-7.184,24.025-2.011,5.549-4.974,9.57-11.49,10.717.377-8.274,5.675-15.733,4.258-25.348-2.41,8.32-5.645,15.155-8.577,22.123-2.926,6.957-7.936,10.353-15.764,11.928,2.845-7.548,7.421-13.782,7.962-21.534-3.899,7.192-8.517,13.831-13.39,20.336-3.498,4.67-7.703,7.391-13.424,7.863-.966-2.026,1.037-2.964,1.308-4.455.746-5.323,5.158-8.712,7.019-13.31-.061.103.133-.216.133-.216,0,0-.193.241-.247.34-2.731,4.013-4.249,8.864-8.967,11.13Z" style="fill: #fff;"/>
        <path d="M1846.976,1600.139c8.963-2.19,18.117-2.582,27.274-2.713,7.807-.112,15.115,1.557,21.015,7.179l.136-.169c-1.666.485-3.281.073-4.774-.544-5.503-2.275-10.635-3.547-14.506,2.895-.93,1.547-2.957,2.323-5,2.359-1.085.019-2.267-.082-3.236.301-15.166,5.982-31.745,6.787-46.89,12.869-7.167,2.879-13.652,6.642-18.961,12.352-5.226,5.621-11.224,10.27-18.121,13.711-4.396,2.193-8.025,5.508-12.285,8.788-2.814-4.49-3.369-9.313-3.51-13.995-.576-19.034,2.392-37.35,11.667-54.333,10.069-18.438,26.954-26.843,46.235-31.771,6.653-1.7,13.472-1.763,20.276-1.303,2.419.164,5.222.157,7.133,1.362,7.834,4.942,16.905,5.576,25.472,7.934,3.369.927,6.644,1.885,10.621,5.436-14.312-1.858-27.007-3.506-39.702-5.155,18.344,4.328,34.975,12.724,51.968,20.464-17.26-5.769-34.787-7.374-52.709-5.048,7.077,1.51,14.428.419,21.477,2.264,2.886.756,5.837,1.261,8.759,1.874,1.824.383,2.642,1.578,3.064,3.341.848,3.545-.012,4.922-3.722,5.091-10.058.457-20.02,1.484-29.689,4.489-1.247.387-2.81.516-1.843,2.515l-.746-.333.597.139Z" style="fill: #fff;"/>
        <path d="M2263.17,2437.814c-4.39,4.775-6.468,11.052-10.466,16.09-2.198,2.769-4.454,5.526-6.327,8.513-4.775,7.612-12.089,10.338-22.443,11.673,8.662-9.442,15.014-18.588,19.618-29.295-2.027-.369-2.605.918-3.201,1.808-7.868,11.75-18.694,20.395-29.862,28.715-3.365,2.507-6.906,3.744-11.828,3.148,3.916-3.868,7.29-7.202,10.665-10.535-.323-.452-.646-.905-.969-1.357-4.11,2.727-8.216,5.459-12.329,8.181-10.701,7.078-12.752,7.607-28.038,6.847,8.226-6.134,16.34-10.801,23.443-17.218-2.879-1.114-4.309.994-6,1.994-9.629,5.698-19.688,10.416-30.271,14.067-3.417,1.179-6.766,1.997-10.415,1.201-1.119-2.326,1.049-3.378,2.035-4.7,7.653-10.255,15.087-20.659,21.657-31.646,1.645-2.751,3.607-4.174,6.883-4.909,14.588-3.272,29.071-7.002,43.611-10.489,28.461-6.825,53.881-20.14,77.841-36.52,6.992-4.78,12.944-10.785,18.715-17.372,4.963,1.165,7.329,4.214,8.61,9.222,2.282,8.916,2.558,17.119-3.978,24.542-2.06,2.34-3.497,5.229-6.187,9.351-.751-9.144.807-16.657-.595-24.431-5.012,15.518-3.226,33.243-16.988,45.011,1.874-11.124,7.098-21.456,6.983-32.97-6.462,14.641-12.132,29.592-19.928,43.565-.615,1.103-1.986,1.844-4.177,1.887,2.552-11.557,6.42-22.797,6.199-34.718-3.41,10.282-6.891,20.481-11.259,30.401-4.154,9.434-10.535,15.549-21.811,17.316,2.136-4.606,4.263-8.744,5.992-13.041,1.894-4.708,5.163-9.014,4.627-14.506l.252-.16-.06.334Z" style="fill: #fdfdfd;"/>
        <path d="M2383.978,1722.034c-14.106-12.971-30.115-23.031-48.659-31.212,4.35-2.398,8.017-3.081,11.979-2.884,22.381,1.114,41.402,10.41,58.572,24.121,3.205,2.56,5.422,6.064,7.751,9.431,15.598,22.547,20.182,47.162,13.827,73.791-.981,4.109-1.148,8.49-3.72,12.805-3.933-3.696-7.718-7.138-11.375-10.71-12.112-11.834-25.951-20.685-42.704-24.216-3.585-.756-4.387-2.175-3.71-5.477.915-4.467.771-9.037.047-15.013,7.043,4.546,12.989,8.384,18.934,12.221-3.432-4.944-7.618-8.971-9.895-16.04,9.074,5.197,15.395,12.081,22.974,17.902.844-2.652-1.265-3.508-2.382-4.627-9.811-9.825-19.69-19.586-30.546-28.277-4.436-3.552-7.44-8.267-10.74-12.911,15.985,8.994,30.955,19.381,45.528,30.617-.251-2.6-2.248-3.952-3.895-5.39-17.464-15.238-35.797-29.287-56.194-40.447-4.335-2.372-8.016-5.551-12.893-9.485,5.688.165,9.675,1.975,13.624,3.567,12.687,5.113,24.183,12.377,35.436,20.052,2.017,1.375,4.046,2.733,6.069,4.098,10.177,4.859,17.549,13.047,23.861,19.218-3.825-4.403-9.727-9.738-16.093-14.59-2.358-1.797-4.947-3.402-5.794-6.542Z" style="fill: #fdfdfd;"/>
        <path d="M1709.898,1811.346c.526.819,1.178,1.582,1.561,2.463,16.887,38.838,34.522,77.372,44.184,118.929,6.644,28.576,12.296,57.371,19.01,85.914,5.962,25.344,12.096,50.695,21.344,75.175,5.438,14.395,9.766,29.21,14.728,44.244-2.694-1.079-2.993-3.127-3.759-4.856-10.242-23.112-19.953-46.48-26.783-70.82-8.144-29.021-14.543-58.474-20.346-88.086-8.683-44.306-20.528-87.764-38.6-129.335-4.715-10.845-8.781-21.978-11.339-33.628Z" style="fill: #f8f7f7;"/>
        <path d="M2255.957,2833.379c.11-11.042,2.621-21.59,4.666-32.217,6.327-32.885,16.734-64.675,25.943-96.785,11.841-41.287,18.761-83.227,16.788-126.347-.621-13.584-2.073-27.048-6.253-40.071-.49-1.526-1.491-2.88-.524-4.623,6.948,14.215,9.367,29.458,10.462,44.928,2.537,35.847-1.213,71.047-10.226,105.874-4.497,17.377-9.625,34.559-14.823,51.695-7.188,23.697-12.679,47.789-18.792,71.741-2.209,8.654-4.816,17.206-7.241,25.805Z" style="fill: #f7f7f7;"/>
        <path d="M2370.689,2339.417c8.309-8.541,16.111-17.505,23.51-26.863,7.695-9.732,13.05-20.643,17.635-32.022,5.078-12.601,9.839-25.414,12.733-38.626,4.064-18.549,15.186-32.215,28.033-44.964,12.167-12.074,24.877-23.611,36.824-35.894,14.636-15.048,27.469-31.596,38.434-49.547,4.403-7.208,8.215-14.696,10.963-22.692,1.148-3.34,2.367-6.623,4.87-9.384-2.594,8.515-4.776,17.166-8.598,25.275-10.679,22.662-25.798,42.201-43.143,60.021-11.382,11.694-23.398,22.774-35.206,34.05-7.113,6.793-13.477,14.199-19.119,22.248-3.943,5.627-6.547,11.705-8.285,18.436-3.866,14.977-8.51,29.755-14.381,44.094-8.297,20.263-21.611,37.001-37.212,52.04-1.85,1.783-3.685,4.099-6.724,4.206l-.337-.38Z" style="fill: #f1f0f0;"/>
        <path d="M1691.791,1741.959c-1.695-6.239-3.592-12.432-5.052-18.726-6.686-28.806-13.349-57.619-19.8-86.478-2.135-9.55-5.431-18.752-7.462-28.356-3.374-15.955-4.954-32.214-8.821-48.083-1.479-6.069-2.587-12.185-4.993-17.996-1.335-3.224-2.313-6.594-3.777-10.839,5.397,6.701,9.327,15.717,11.942,24.499,4.9,16.455,7,33.488,10.82,50.16,3.578,15.617,7.135,31.238,10.727,46.852,4.988,21.679,10.233,43.302,14.878,65.054,1.633,7.648,1.824,15.604,2.674,23.419-.379.165-.758.33-1.137.495Z" style="fill: #f6f5f5;"/>
        <path d="M2156.892,2272.558c13.731,11.742,14.938,26.66,14.185,42.257-.772,16.008-5.308,30.885-12.308,45.27-7.61,15.638-14.273,31.78-23.908,46.324-15.322,23.13-35.456,40.297-62.446,48.509-.441.134-.998-.116-1.841-.235,5.117-4.383,10.992-7.153,16.624-10.144,22.62-12.016,39.112-29.986,51.411-52.085,8.071-14.503,14.868-29.632,21.182-44.968,7.699-18.699,8.107-38.064,4.909-57.712-.49-3.011-1.857-5.648-3.528-8.158-1.356-2.037-2.696-4.085-3.968-6.175-.241-.396-.128-1.007-.313-2.885Z" style="fill: #f3f3f3;"/>
        <path d="M1958.601,1835.262c-3.633-12.92-4.821-26.118-5.823-39.286-2.483-32.639-8.194-64.597-19.107-95.522-7.158-20.283-17.643-38.466-33.909-52.948-1.091-.971-2.828-1.701-2.421-4.965,3.227,2.658,6.082,4.806,8.708,7.205,16.258,14.849,26.584,33.299,33.705,53.982,11.522,33.465,16.073,68.049,18.064,103.141.538,9.472,1.648,18.914.782,28.393Z" style="fill: #f5f4f4;"/>
        <path d="M1984.689,2744.774c1.179,6.077-1.048,11.745-1.978,17.549-2.585,16.132-3.312,32.279-3.07,48.671.407,27.553,5.506,54.681,6.137,82.16.292,12.74-.151,25.435-4.694,38.677-1.342-8.956.235-16.857.547-24.722.706-17.786-1.834-35.266-3.725-52.826-2.801-26.008-4.423-52.031-.92-78.111,1.442-10.735,5.563-20.813,7.703-31.398Z" style="fill: #f6f5f5;"/>
        <path d="M2462.523,1292.493c-.379,20.172,4.283,39.873,5.605,59.893,1.024,15.496.506,30.93-1.067,46.332-.512,5.006-1.926,9.948-6.162,13.274-2.613-1.195-1.837-2.908-1.424-4.308,2.33-7.896,2.704-15.998,2.968-24.156.634-19.575-1.341-39.053-2.069-58.574-.426-11.42-.096-22.784.593-34.163,1.452-.286,2.32-.038,1.557,1.702Z" style="fill: #f3f3f3;"/>
        <path d="M2291.128,2459.279c-3.247,4.146-7.743,6.684-12.167,9.257-30.578,17.781-63.613,27.814-98.776,30.884-9.499.829-18.969-.148-28.434-2.624,5.869-.547,11.737-1.558,17.606-1.564,33.336-.032,64.319-9.536,94.269-23.152,9.119-4.146,17.938-8.953,26.895-13.458.202.219.405.439.607.658Z" style="fill: #efeeee;"/>
        <path d="M2452.418,1277.337c.972,4.562.005,9.16.265,13.732.148,2.617-.841,5.457,1.363,7.717.032,8.422-.124,16.85.139,25.265.407,13.049,1.276,26.084,1.622,39.134.34,12.795-.113,25.573-3.055,38.121-.408,1.741-.494,4.2-3.156,3.786-2.753-.428-2.942-2.43-2.486-4.946,5.869-32.387,3.691-65.087,3.761-97.706.018-8.378-.857-16.855,1.547-25.103Z" style="fill: #d3cfcf;"/>
        <path d="M2234.293,2933.178c-2.755-8.777-4.532-17.949-3.344-26.952,3.44-26.059,7.019-52.125,12.372-77.883,2.086-10.037,4.885-19.926,7.774-29.825-6.947,44.702-15.426,89.215-16.802,134.659Z" style="fill: #e9e8e8;"/>
        <path d="M2275.894,2372.996c-31.614,24.861-67.43,38.814-107.948,39.831,18.508-5.67,38.425-6.081,56.269-14.436,17.364-8.13,35.05-15.639,51.679-25.395Z" style="fill: #eae9e9;"/>
        <path d="M2270.307,2511.935c21.24,34.53,26.95,72.132,19.412,111.992-1.696-18.891.954-38.066-2.765-56.814-3.739-18.846-7.548-37.746-16.647-55.178Z" style="fill: #f0efef;"/>
        <path d="M1751.628,2122.393c-11.293-18.355-19.26-38.189-25.851-58.608-2.246-6.956-3.939-14.088-6.015-21.102-.619-2.09-1.124-4.068-.181-6.828,5.804,16.987,10.434,33.698,17.311,49.642,4.945,11.465,11.357,22.181,16.456,33.553-1.496.639-1.39,2.103-1.719,3.342Z" style="fill: #383030;"/>
        <path d="M2462.523,1292.493c-.519-.567-1.038-1.135-1.557-1.702-.231-11.708,2.596-23.013,4.674-34.399,2.565-14.05,6.395-27.787,11.122-41.268.681,1.218.257,3.029,1.98,3.688-.624,5.958-3.349,11.295-5.144,16.891-5.202,16.215-8.959,32.665-9.759,49.729-.112,2.389.04,4.881-1.316,7.061Z" style="fill: #bfbabb;"/>
        <path d="M1918.187,1769.496c-2.496-13.341-3.847-26.623,2.052-39.528.151.224.415.437.439.674,1.566,15.799.087,31.729,2.554,47.507-3.38-4.38-3.986-9.278-4.007-14.422-.346,1.923-.692,3.847-1.038,5.77Z" style="fill: #9d9898;"/>
        <path d="M2155.322,1839.521c-12.01-3.66-23.357-8.772-33.946-15.624,12.276,5.222,25.255,8.457,37.437,13.861-1.155.606-2.89.062-3.491,1.764Z" style="fill: #5b5556;"/>
        <path d="M2383.978,1722.034c10.487,7.57,19.666,16.495,27.122,27.31-4.78-4.309-9.596-8.58-14.331-12.938-4.744-4.367-10.433-7.607-14.765-12.458.658-.638,1.316-1.276,1.974-1.914Z" style="fill: #514b4b;"/>
        <path d="M2260.937,2118.691c9.708-8.148,21.187-13.264,31.977-19.561.303.475.606.95.908,1.424-10.3,6.622-20.599,13.245-30.899,19.868-.662-.577-1.324-1.154-1.986-1.731Z" style="fill: #4c4646;"/>
        <path d="M2129.195,1556.817c-13.055-2.278-25.932-5.833-39.377-5.364,14.493-1.098,28.929-1.713,42.837,3.667-1.137.6-2.698.332-3.46,1.697Z" style="fill: #585152;"/>
        <path d="M2143.514,1534.469c-6.898-5.318-13.797-10.637-20.695-15.955,9.031,2.345,16.383,7.388,23.011,13.623-1.051.501-1.99,1.112-2.316,2.332Z" style="fill: #585152;"/>
        <path d="M2125.89,1846.143c.477-.471.954-.943,1.431-1.414,10.229,5.013,20.457,10.025,30.686,15.038-6.195-.177-22.763-7.577-32.116-13.624Z" style="fill: #968f8f;"/>
        <path d="M2127.255,1634.001c-2.254-4.674-2.075-9.985-3.87-14.777-1.754-4.68-3.532-9.351-4.912-14.166,4.942,6.789,9.363,13.779,10.531,22.281-3.221,1.528-.358,4.653-1.749,6.662Z" style="fill: #6b6666;"/>
        <path d="M2122.566,2320.071c-3.207,6.815-7.376,12.96-12.723,18.286l-.575-.513c3.167-7.407,7.148-14.361,11.676-21.012.399,1.151-.146,2.774,1.622,3.239Z" style="fill: #5d5757;"/>
        <path d="M1493.11,1134.209c-4.285-7.378-8.114-14.985-11.465-22.832.215-.208.431-.416.646-.624,5.54,6.413,9.658,13.664,12.702,21.548-.628.636-1.255,1.271-1.883,1.907Z" style="fill: #605c5d;"/>
        <path d="M1983.684,2248.15c.644-.637,1.288-1.275,1.933-1.912,2.547,6.159,5.095,12.318,7.642,18.477-4.77-4.713-8.165-10.099-9.575-16.565Z" style="fill: #ada7a7;"/>
        <path d="M2434.647,1480.277c.137,8.046-2.208,15.587-4.699,23.098-.675-1.095-.274-2.724-1.708-3.441,1.447-6.76,2.762-13.564,6.546-19.542l-.139-.115Z" style="fill: #565050;"/>
        <path d="M2114.822,2004.254c5.702,2.8,10.594,6.616,14.552,11.603-1.264.235-1.979,1.024-2.264,2.246-4.389-4.301-8.778-8.601-13.167-12.902-.209-.781.06-1.119.878-.948Z" style="fill: #656060;"/>
        <path d="M1839.854,2370.752c7.99.346,14.891,3.693,21.516,7.804-.602.623-1.204,1.245-1.806,1.868-6.531-3.266-13.063-6.532-19.594-9.798l-.116.126Z" style="fill: #716f6f;"/>
        <path d="M2068.715,2414.944c-5.819,4.817-12.933,6.877-20.367,8.458,6.317-3.291,12.635-6.582,18.952-9.873.472.471.943.943,1.415,1.415Z" style="fill: #827f7f;"/>
        <path d="M1781.299,2207.094c-5.328-3.197-9.365-7.678-12.216-13.476,4.515,4.05,9.031,8.101,13.547,12.151-.444.442-.887.883-1.331,1.325Z" style="fill: #8e8d8d;"/>
        <path d="M2165.203,1828.018c-5.672-1.037-11.548-1.325-16.621-4.548l.182-.222c7.357-.607,14.376,1.065,21.332,3.167-1.506.916-3.731-.364-4.892,1.604Z" style="fill: #726d6d;"/>
        <path d="M2235.769,2364.657c-1.979,5.301-4.601,10.221-8.519,14.373-.687-.686-1.374-1.371-2.062-2.057,2.961-4.586,5.843-9.231,9.779-13.089.267.258.535.516.802.773Z" style="fill: #5c5657;"/>
        <path d="M1495.631,1118.714c3.378,4.038,6.247,8.36,7.55,13.554-.549.578-1.097,1.155-1.646,1.733-3.05-4.439-4.982-9.41-6.872-14.403-.159-.823.163-1.118.968-.884Z" style="fill: #504c4c;"/>
        <path d="M2217.836,2367.953c-2.104,4.246-4.591,8.206-8.357,11.213-.589-.583-1.179-1.166-1.768-1.749,2.576-3.866,5.72-7.242,9.034-10.472.854-.195,1.195.166,1.09,1.008Z" style="fill: #706b6b;"/>
        <path d="M2146.824,1529.502c-2.037-2.086-1.623-4.972-2.786-7.741,3.052,1.125,4.003,3.369,4.751,5.776-.655.655-1.31,1.31-1.965,1.965Z" style="fill: #585152;"/>
        <path d="M2480.211,1198.99c.669,2.478.726,4.836-1.33,6.779-.372-2.42-.003-4.694,1.33-6.779Z" style="fill: #bfbabb;"/>
        <path d="M2088.284,2455.721c.074-2.419,2.323-1.757,3.345-2.833-.354,2.15-1.454,3.155-3.499,2.663,0,0,.154.17.154.17Z" style="fill: #fff;"/>
        <path d="M2371.026,2339.797c-.846,2.084-2.515,2.828-6.327,3.496,2.688-2.312,3.792-3.823,5.991-3.875,0,0,.336.379.336.379Z" style="fill: #f1f0f0;"/>
        <path d="M2145.338,2209.073c.228-.147.505-.461.677-.412,1.09.31,1.856,1.044,2.294,2.081.04.095-.285.344-.44.521-.426-1.151-3.026-.146-2.359-2.38,0,0-.173.19-.173.19Z" style="fill: #fff;"/>
        <path d="M2290.521,2458.621c.935-1.728,2.222-2.844,5.045-2.514-1.544,1.541-2.386,3.073-4.438,3.172-.198-.223-.4-.442-.607-.658Z" style="fill: #efeeee;"/>
        <path d="M1903.035,2438.367c.706-.24,1.481-.785,2.099-.643.749.172,2.091-.866,2.191.798.007.108-1.296.465-1.956.395-.733-.077-1.428-.513-2.157-.77-.018.022-.176.219-.176.219Z" style="fill: #fff;"/>
        <path d="M2429.5,1506.306c.423,1.933.296,3.744-1.171,5.257-.698-1.995-.427-3.773,1.171-5.257Z" style="fill: #565050;"/>
        <path d="M1983.388,2236.829c-1.731-1.415-1.862-3.202-1.206-5.173,1.249,1.527,1.656,3.25,1.206,5.173Z" style="fill: #ada7a7;"/>
        <path d="M2480.398,1213.95c-.582-2.017-.061-3.671,1.628-4.94.337,1.936-.32,3.545-1.628,4.94Z" style="fill: #bfbabb;"/>
        <path d="M1895.266,1604.604c.491-.109,1.055-.426,1.456-.283.783.279,2.456-.138,2.142,1.083-.286,1.113-1.783.555-2.703.183-.35-.142-.509-.757-.757-1.154-.002.003-.138.172-.138.171Z" style="fill: #fff;"/>
        <path d="M1963.012,2642.326c.47,1.378,1.254,2.729.037,4.893,0-2.037,0-3.41-.02-4.816-.02-.034-.017-.077-.017-.077Z" style="fill: #110505;"/>
        <path d="M1969.981,2700.325c-.329-1.247-.657-2.494-.986-3.741.304-.055.608-.11.912-.165,0,1.248,0,2.496.03,3.785.03.041.044.121.044.121Z" style="fill: #110505;"/>
        <path d="M2010.299,2501.914c-2.544.673-5.108.699-8.596.185,3.508-.181,6.098-.868,8.734-.078.019.017-.138-.106-.138-.106Z" style="fill: #110505;"/>
        <path d="M2109.843,2338.357c-.877,1.328-1.753,2.656-3.266,4.948.286-3.138,1.056-4.555,2.691-5.461,0,0,.575.513.575.513Z" style="fill: #5d5757;"/>
        <path d="M2227.158,2573.342c-1.89-.899-1.488-2.161-.507-3.731.106,1.458.197,2.698.284,3.941-.003.004.222-.211.222-.211Z" style="fill: #110505;"/>
        <path d="M1764.791,2235.002c-3.095,1.27-4.8-1.616-7.172-2.486,2.59.208,5.378-.12,7.051,2.637,0,0,.12-.151.12-.151Z" style="fill: #110505;"/>
        <path d="M2528.803,2068.499v6.783c-.216.001-.432.002-.648.004.105-2.257.21-4.514.316-6.77.111-.006.222-.011.333-.016Z" style="fill: #110505;"/>
        <path d="M2496.337,2094.234c-.619,1.082-1.238,2.164-2.136,3.736-1.038-2.417.864-3.23,2.136-3.736Z" style="fill: #110505;"/>
        <path d="M2434.786,1480.391c-.386-1.342-.207-2.634.356-3.953,1.388,1.518,1.298,2.785-.497,3.836.002.002.141.117.141.117Z" style="fill: #565050;"/>
        <path d="M2148.582,1823.47c-.533.026-1.122.21-1.585.043-.774-.279-2.219.396-2.093-1.19.016-.206,1.378-.432,2.112-.419.819.015,1.478.49,1.747,1.345.001-.001-.181.221-.181.221Z" style="fill: #726d6d;"/>
        <path d="M2333.454,1880.627c-.716-.671-.406-1.396.076-1.933.585-.652,1.029-1.906,2.249-1.064.099.068-.572,1.25-.885,1.914-.327.695-.699,1.31-1.636.924,0,0,.196.159.196.159Z" style="fill: #110505;"/>
        <path d="M1898.864,1757.909c-2.543-1.114-1.436-2.807-.675-4.622.157,1.731.297,3.284.439,4.838.001,0,.236-.216.236-.216Z" style="fill: #110505;"/>
        <path d="M2461.68,1211.931c-.233-1.725-1.263-3.406-.293-5.223,1.575,1.648-.503,3.488.308,5.172-.002.016-.015.051-.015.051Z" style="fill: #110505;"/>
        <path d="M1549.887,1321.097c.204,1.456.408,2.912.612,4.368-.958-1.464-2.788-2.978-.446-4.44.039-.02-.166.072-.166.072Z" style="fill: #110505;"/>
        <path d="M2289.434,2085.043c-.472,1.768-2.12,2.337-3.386,3.272-25.604,18.909-50.522,38.615-72.395,61.894-1.63,1.734-3.143,3.715-5.834,4.783-.519-2.609,1.363-4.038,2.534-5.586,5.087-6.725,10.431-13.279,16.68-18.945,18.15-16.457,37.53-31.335,58.22-44.483,1.144-.727,2.245-1.546,3.707-1.452l.474.518Z" style="fill: #251b1b;"/>
        <path d="M2288.961,2084.525c.848-1.864,2.575-2.328,4.394-2.775-.149,2.551-2.041,2.915-3.921,3.292,0,0-.474-.517-.474-.517Z" style="fill: #251b1b;"/>
        <path d="M2113.943,2005.202c-1.775-.493-2.893-1.716-4.329-3.273,2.814-.488,3.973.991,5.207,2.326-.298.311-.591.627-.878.947Z" style="fill: #656060;"/>
        <path d="M1839.969,2370.626c-1.226.053-2.47.193-3.553-.738,1.464-.837,2.791-1.354,3.437.864,0,0,.116-.127.116-.127Z" style="fill: #716f6f;"/>
        <path d="M1481.644,1111.378c-1.561-1.047-2.181-2.636-2.599-4.449,2.413.239,2.809,2.049,3.245,3.826-.219.204-.434.412-.646.623Z" style="fill: #605c5d;"/>
        <path d="M1494.663,1119.598c-1.487-1.358-2.672-2.86-2.59-5.509,2.184,1.133,3.153,2.65,3.558,4.625-.329.288-.652.582-.968.884Z" style="fill: #504c4c;"/>
        <path d="M1970.581,2047.209c-2.5-1.639-2.096-4.324-2.649-6.661,1.175,2.144,3.617,3.878,2.485,6.792-.002.001.164-.131.164-.131Z" style="fill: #110505;"/>
        <path d="M2101.49,1926.191c-.539-.053-1.079-.095-1.616-.164-.529-.067-1.054-.162-1.581-.245.466-1.061,1.34-.604,2.085-.533.652.062.944.492.889,1.163,0,0,.223-.221.223-.221Z" style="fill: #110505;"/>
        <path d="M2108.096,1540.46c-2.304.399-4.574-.029-7.554-.835,2.948.374,5.325-1.563,7.367,1.047.004-.005.187-.211.187-.211Z" style="fill: #110505;"/>
        <path d="M2124.656,1531.907c-.189.166-.351.406-.572.485-1.196.426-2.297.173-3.273-.601-.057-.045.182-.637.241-.63.969.12,1.937.27,2.891.478.204.044.354.342.543.504.014-.019.169-.236.169-.236Z" style="fill: #110505;"/>
        <path d="M2234.967,2363.883c.201-1.926,1.648-2.893,2.977-4.751.415,2.921-.771,4.274-2.176,5.523-.263-.261-.53-.519-.801-.773Z" style="fill: #5c5657;"/>
        <path d="M2216.746,2366.946c.577-1.725,1.613-3.091,3.445-4.285.499,2.519-.946,3.898-2.356,5.293-.358-.341-.721-.677-1.09-1.008Z" style="fill: #706b6b;"/>
        <path d="M1846.976,1600.139c-.753.194-1.496.458-2.261.557-.434.056-1.289-.137-1.296-.254-.07-1.237,1.041-.757,1.553-.787.688-.04,1.403.39,2.13.648.023.03-.125-.164-.125-.164Z" style="fill: #110505;"/>
        <path d="M2263.17,2437.814c.112-1.252.223-2.504.386-4.33.924,2.015,1.915,3.484-.578,4.156,0,0,.192.174.192.174Z" style="fill: #110505;"/>
      </g>
    </g>
  </g>
</svg>